<?xml version="1.0" encoding="UTF-8"?>
<!DOCTYPE svg PUBLIC "-//W3C//DTD SVG 1.1//EN" "http://www.w3.org/Graphics/SVG/1.1/DTD/svg11.dtd">
<!-- Creator: CorelDRAW X7 -->
<svg xmlns="http://www.w3.org/2000/svg" xml:space="preserve" width="215.9mm" height="279.4mm" version="1.1" style="shape-rendering:geometricPrecision; text-rendering:geometricPrecision; image-rendering:optimizeQuality; fill-rule:evenodd; clip-rule:evenodd"
viewBox="0 0 21590 27940"
 xmlns:xlink="http://www.w3.org/1999/xlink">
 <defs>
  <style type="text/css">
   <![CDATA[
    .fil1 {fill:#13204B;fill-rule:nonzero}
    .fil0 {fill:#FCC616;fill-rule:nonzero}
   ]]>
  </style>
 </defs>
 <g id="Layer_x0020_1">
  <metadata id="CorelCorpID_0Corel-Layer"/>
  <path class="fil0" d="M12586 14387c-28,124 -66,251 -92,378 -23,-63 -66,-99 -127,-127 -124,-51 -277,-61 -429,-58 -168,5 -345,33 -521,55 -1313,173 -2654,351 -3647,481 86,-33 173,-66 259,-97 1298,-190 566,-79 4557,-632zm1107 -145l127 -18 -1214 597c-10,5 -23,10 -36,18l-27 12 12 -50 1138 -559zm-1039 137c102,-13 203,-25 305,-41l633 -86 -976 480c-10,5 -18,10 -28,15l-23 10c31,-124 59,-251 89,-378z"/>
  <path class="fil1" d="M10983 12865c117,-18 231,-35 348,-53 13,218 25,439 38,660 0,46 8,94 33,132 -132,21 -264,41 -396,61 28,-25 46,-63 46,-101 0,-41 -8,-82 -11,-122 -106,17 -216,33 -322,50 -28,39 -54,79 -81,117 -16,21 -28,41 -36,64 -8,18 -5,38 -3,56 -73,10 -147,23 -221,33 54,-54 102,-115 148,-178 157,-224 315,-447 470,-671 7,-17 -5,-35 -13,-48zm-163 483l0 0c72,-13 140,-23 211,-33 -5,-82 -12,-165 -18,-247 -66,92 -129,186 -193,280zm-2654 -51c216,-33 432,-66 650,-99 38,-8 82,-3 115,20 23,18 33,48 33,76 -3,56 -23,110 -38,165 -33,102 -66,206 -99,310 -18,56 -41,112 -77,158 -40,48 -96,84 -157,104 -28,10 -56,13 -87,18 -200,30 -403,61 -604,94 33,-41 58,-89 74,-140 61,-196 122,-389 182,-584 13,-41 23,-84 8,-122zm287 89l0 0c-58,188 -119,376 -178,566 44,-7 89,-15 132,-20 39,-5 82,-18 97,-53 15,-31 23,-61 33,-92 33,-107 69,-216 102,-322 7,-26 17,-54 17,-79 3,-10 -5,-18 -15,-23 -13,-3 -28,-3 -43,0 -48,8 -97,15 -145,23zm655 -234c229,-35 460,-71 691,-107 -10,54 -17,105 -28,155 -28,-7 -58,-7 -86,-2 -96,13 -193,28 -290,43 -22,69 -43,137 -66,206 82,-13 163,-26 242,-38 40,-5 81,-16 117,-36 -18,61 -39,119 -56,180 -23,-15 -54,-10 -79,-7 -89,13 -178,25 -267,40 -23,74 -48,148 -71,221 94,-12 186,-27 277,-43 48,-5 94,-28 137,-48 -28,58 -53,117 -79,173 -236,35 -472,73 -708,109 35,-41 58,-89 73,-140 61,-195 122,-388 183,-584 13,-38 23,-81 10,-122zm1037 -160c142,-20 284,-43 429,-66 -10,58 -18,114 -28,170 -15,-10 -30,-18 -51,-18 -23,-2 -48,3 -73,6 -59,7 -117,17 -178,27 -23,3 -48,6 -66,21 -23,18 -36,43 -43,71 -41,129 -82,259 -122,389 -8,22 -16,48 -8,71 8,17 31,17 48,15 51,-5 104,-15 155,-23 66,-8 130,-23 188,-53 -25,56 -51,111 -76,170 -160,23 -320,48 -480,74 -38,5 -81,5 -112,-23 -25,-23 -40,-56 -35,-92 2,-33 10,-63 20,-96 38,-122 76,-242 114,-363 18,-51 36,-100 66,-140 43,-54 99,-99 165,-122 28,-10 56,-13 87,-18zm1547 -236c119,-18 241,-38 363,-56 -48,51 -71,119 -89,185 -56,176 -112,351 -165,526 91,-12 183,-28 277,-43 40,-5 78,-20 111,-46 -25,59 -50,117 -78,176 -229,35 -457,68 -686,104 48,-54 71,-125 91,-193 56,-178 112,-356 168,-534 10,-38 20,-81 8,-119z"/>
  <path class="fil1" d="M9332 13988c-71,170 -165,614 -173,810l-193 31c3,-33 8,-67 13,-97l-328 69c-48,73 -213,353 -249,419l-139 20c43,-89 127,-241 236,-409l-625 122 0 0c-36,8 -8,-10 5,-15 267,-97 533,-183 699,-229 231,-345 536,-711 754,-721zm-605 683c89,-23 181,-43 270,-63 40,-122 53,-257 96,-379 -119,76 -300,338 -366,442zm2413 -404c-27,-23 -40,-63 -33,-112l6 -17c-87,17 -173,114 -194,198 -10,45 -5,79 46,71 71,-10 140,-74 175,-140zm773 -498c63,-10 127,-81 142,-142 7,-33 2,-58 -36,-51 -63,10 -127,82 -142,143 -8,33 -5,55 36,50zm325 -71l139 -23 -30 138 99 -16 10 -2 -2 10 0 0 -8 63 0 0 0 0c0,5 -5,11 -10,13l-8 0 -101 15 -56 244c-10,38 2,66 38,61 58,-10 114,-112 124,-162l28 -115 26 -117 167 -25 3 0 -74 310c-7,38 3,66 41,61 56,-8 112,-112 122,-163l28 -114 0 0 28 -114 165 -28 -183 792c-5,13 -18,26 -33,28l-140 23 92 -399c-44,56 -89,97 -168,110 -69,10 -117,-26 -127,-84 -48,66 -97,117 -186,132 -68,10 -116,-26 -127,-84 -48,66 -96,117 -185,132 -69,10 -117,-25 -127,-84 -48,66 -96,117 -185,130 -87,12 -143,-46 -130,-135l41 -170c-23,13 -51,23 -82,28l-2 0c-43,61 -86,112 -160,132 -48,119 -165,221 -279,239 -84,12 -145,-21 -173,-79 -48,66 -97,119 -183,135l0 0c-81,10 -147,-31 -132,-135l0 -8 0 0 38 -162c0,-28 -13,-46 -41,-41 -58,8 -114,112 -124,163l-28 114 0 -3 -28 115 -168 25 21 -81c-44,53 -92,96 -168,107 -69,10 -117,-23 -130,-82 -48,66 -96,117 -185,130 -66,10 -114,-23 -127,-84 -48,69 -96,119 -185,132 -87,13 -140,-46 -127,-135l81 -342 165 -26 3 -2 -74 310c-8,38 5,66 41,60 58,-7 111,-111 124,-162l25 -114 0 0 28 -115 165 -25 3 0 -74 310c-7,35 5,63 41,58 58,-7 112,-112 124,-162l26 -115 0 0 12 -48 -81 13 -10 0 8 -54 0 -2 2 -15c0,-8 5,-13 10,-13l16 -3 76 -10 23 -106 2 -5c5,-16 18,-28 33,-31l0 0 140 -20 -31 137 100 -15 7 -3 0 10 0 0 -7 64 -3 0 0 0c0,5 -5,10 -10,10l-8 2 -99 16 -58 244c-8,38 5,66 40,61 59,-11 112,-112 125,-166l25 -114 3 3 94 -407c5,-15 18,-28 33,-30l139 -21 -94 402c44,-54 89,-97 166,-109l0 0 0 0c2,0 2,0 5,0 86,-13 139,45 127,134l-38 170c-3,28 12,46 40,41 33,-5 64,-38 87,-76 0,-18 2,-38 7,-61 31,-140 147,-264 295,-287 94,-15 162,30 183,112 5,12 20,25 40,22 8,0 16,-5 23,-7 -7,-5 -15,-13 -23,-23 0,-3 -2,-5 -2,-8l0 0 0 0c-5,-7 -3,-23 0,-38 15,-61 76,-129 139,-142l0 0 0 0c0,0 3,0 3,0 38,-5 41,18 33,51 0,5 -2,10 -2,15 -3,5 -3,8 -6,13 8,2 16,5 26,2 7,0 15,-2 23,-7l12 -59 165 -25 3 0 -71 310c-10,38 2,66 38,58 58,-7 112,-109 124,-162l28 -115 26 -114 167 -25 0 0 -71 309c-10,39 3,66 38,61 59,-10 112,-111 125,-165l28 -114 0 0 10 -48 -79 12 -10 3 5 -56 3 -2 2 -16c0,-5 5,-10 10,-12l13 0 76 -13 26 -107 0 -5c5,-15 17,-28 33,-28z"/>
 </g>
</svg>
