<?xml version="1.0" encoding="UTF-8" standalone="no"?>
<!-- Creator: CorelDRAW X7 -->

<svg
   xml:space="preserve"
   width="84.800003mm"
   height="84.025955mm"
   version="1.1"
   style="clip-rule:evenodd;fill-rule:evenodd;image-rendering:optimizeQuality;shape-rendering:geometricPrecision;text-rendering:geometricPrecision"
   viewBox="0 0 8480.0005 8402.5957"
   id="svg35"
   xmlns="http://www.w3.org/2000/svg"
   xmlns:svg="http://www.w3.org/2000/svg">
 <defs
   id="defs1">
  <style
   type="text/css"
   id="style1">
   <![CDATA[
    .fil0 {fill:none}
    .fil1 {fill:#373435}
    .fil2 {fill:#FEFEFE;fill-rule:nonzero}
    .fil3 {fill:#D2D3D5;fill-rule:nonzero}
   ]]>
  </style>
   <clipPath
   id="id0">
    <path
   d="m 12047,12771 c 149,37 296,82 439,136 223,85 438,192 630,334 v 0 0 c 2,1 3,2 4,2 v 1 l 4,3 v 0 c 8,6 16,12 24,18 v 0 c 119,94 228,203 307,334 65,107 106,230 110,356 v 43 c -4,61 -13,122 -32,181 -37,115 -102,219 -180,311 -88,102 -193,189 -305,265 -195,132 -410,231 -631,309 -292,102 -595,168 -900,208 -215,28 -431,43 -648,45 -291,4 -583,-15 -872,-58 -309,-46 -614,-119 -906,-231 -220,-85 -434,-191 -623,-333 -106,-80 -204,-172 -283,-280 -66,-90 -118,-192 -143,-301 -10,-43 -15,-88 -17,-133 v -33 c 4,-129 46,-254 114,-363 69,-114 162,-211 264,-296 128,-106 271,-193 420,-267 231,-113 476,-196 726,-257 199,-49 401,-84 605,-107 357,-41 717,-46 1076,-18 275,22 549,64 817,131 z"
   id="path1" />
   </clipPath>
 </defs>
 <g
   id="Layer_x0020_1"
   transform="translate(-5085,-12622.405)">
  <metadata
   id="CorelCorpID_0Corel-Layer" />
  <rect
   class="fil0"
   x="5085"
   y="13666"
   width="7359"
   height="7359"
   id="rect1" />
  <path
   class="fil1"
   d="m 12047,12771 c 149,37 296,82 439,136 223,85 438,192 630,334 v 0 0 c 2,1 3,2 4,2 v 1 l 4,3 v 0 c 8,6 16,12 24,18 v 0 c 119,94 228,203 307,334 65,107 106,230 110,356 v 43 c -4,61 -13,122 -32,181 -37,115 -102,219 -180,311 -88,102 -193,189 -305,265 -195,132 -410,231 -631,309 -292,102 -595,168 -900,208 -215,28 -431,43 -648,45 -291,4 -583,-15 -872,-58 -309,-46 -614,-119 -906,-231 -220,-85 -434,-191 -623,-333 -106,-80 -204,-172 -283,-280 -66,-90 -118,-192 -143,-301 -10,-43 -15,-88 -17,-133 v -33 c 4,-129 46,-254 114,-363 69,-114 162,-211 264,-296 128,-106 271,-193 420,-267 231,-113 476,-196 726,-257 199,-49 401,-84 605,-107 357,-41 717,-46 1076,-18 275,22 549,64 817,131 z"
   id="path2" />
  <g
   clip-path="url(#id0)"
   id="g35">
   <g
   id="_1719560304">
    <g
   id="g15">
     <path
   id="1"
   class="fil2"
   d="m 10545,12901 c 33,11 65,28 93,49 10,8 19,17 32,20 71,15 143,31 214,46 20,4 38,13 56,21 63,27 125,55 185,88 95,52 186,114 257,196 71,86 126,183 166,285 71,125 156,243 256,347 38,40 92,63 146,72 14,2 30,7 44,0 57,-28 114,-59 167,-95 19,-13 39,-26 55,-43 27,-29 57,-56 90,-77 17,-13 38,-19 56,-31 17,-15 31,-32 48,-47 47,-43 98,-82 152,-116 10,-7 16,-19 22,-29 12,-20 25,-40 44,-54 55,-38 111,-75 167,-112 -6,-7 -15,-10 -23,-14 -145,-78 -300,-138 -457,-186 -167,-52 -337,-91 -508,-121 -279,-49 -561,-75 -843,-83 -15,0 -28,-8 -41,-13 -40,-15 -81,-24 -123,-34 -56,-14 -114,-27 -164,-58 11,-1 22,-1 34,-1 308,-6 617,10 923,53 213,30 425,73 631,133 227,66 450,151 651,275 79,-47 161,-90 245,-129 2,0 5,-2 7,-2 -1,1 -2,4 -3,6 -37,75 -100,135 -171,177 113,81 218,178 284,302 32,60 52,127 56,195 4,70 -9,140 -36,204 -29,67 -71,128 -120,182 -66,73 -143,135 -225,189 -101,66 -210,121 -321,169 -122,52 -247,95 -375,131 -2,-21 -4,-41 -5,-62 9,-1 19,-2 28,-2 -3,-8 -6,-17 -9,-25 146,-42 291,-91 430,-155 115,-54 227,-116 327,-196 79,-63 152,-139 197,-231 32,-64 47,-136 40,-207 -7,-76 -38,-148 -81,-210 -63,-90 -148,-161 -238,-222 -20,36 -40,73 -63,108 -13,21 -35,33 -54,48 -13,10 -30,16 -37,32 -19,44 -38,88 -62,130 -8,18 -29,20 -44,29 -52,33 -90,83 -126,132 -13,18 -24,40 -46,48 -40,18 -80,34 -120,51 -18,7 -32,20 -45,34 -25,27 -43,59 -59,92 12,39 24,78 36,117 8,24 7,50 10,75 3,26 -2,52 -6,78 -19,-17 -34,-37 -54,-53 -24,-5 -49,-10 -71,-23 -18,-13 -41,-6 -60,-2 -8,6 -11,16 -16,23 -21,38 -48,73 -78,104 -9,10 -22,18 -29,30 4,26 16,51 26,75 6,15 11,32 24,41 14,9 28,19 45,22 22,4 46,5 68,10 19,4 34,18 48,31 -14,-3 -27,-5 -41,-6 8,9 17,17 24,28 13,25 12,54 12,82 -7,-25 -19,-47 -34,-68 -13,1 -26,2 -39,7 10,38 2,77 -2,115 -9,-39 -21,-78 -38,-115 -4,-9 -10,-19 -20,-21 -7,0 -14,5 -14,12 -3,18 -3,36 -5,53 -11,-28 -12,-61 -32,-85 -7,-10 -10,-21 -17,-31 -12,-10 -28,-15 -41,-24 -32,-22 -61,-48 -90,-74 -6,4 -12,9 -18,13 9,37 19,75 27,112 2,12 13,19 21,27 7,6 14,14 23,12 25,0 53,-13 75,3 25,19 38,51 46,80 -15,-15 -24,-44 -50,-43 7,24 29,43 28,70 0,28 3,56 3,85 -10,-36 -22,-71 -40,-103 -6,-10 -24,-17 -29,-4 -9,29 -22,57 -41,81 3,-30 7,-61 1,-92 -2,-15 -20,-28 -35,-24 -19,22 -30,50 -45,75 2,-28 6,-56 9,-84 3,-19 -5,-39 -15,-55 -33,-37 -88,-43 -135,-35 -9,-5 -18,-12 -29,-9 -12,3 -19,15 -30,19 -25,3 -51,4 -76,-4 -17,13 -37,30 -60,25 -24,-6 -36,-30 -57,-40 -90,-7 -181,-5 -271,1 -37,2 -71,15 -102,34 -47,25 -98,48 -153,42 18,-24 39,-45 57,-69 10,-13 27,-15 41,-21 30,-10 57,-27 84,-43 52,-33 113,-45 171,-65 22,-8 47,-13 66,-29 17,-14 35,-28 53,-42 7,-5 16,-9 25,-11 32,-10 62,-25 91,-43 31,-18 57,-45 75,-76 -9,4 -18,9 -26,14 1,-16 4,-31 5,-46 2,-12 -6,-22 -10,-33 -8,-16 -11,-34 -18,-50 -10,-10 -22,-17 -33,-25 -48,-37 -95,-75 -143,-112 -15,-12 -24,-30 -34,-46 -26,-46 -51,-93 -73,-142 -9,-17 -24,-31 -36,-46 -47,-57 -91,-115 -135,-174 -11,-14 -25,-26 -39,-38 -48,-46 -94,-94 -139,-144 -9,-9 -17,-21 -29,-25 -33,-12 -65,-23 -98,-35 1,-1 1,-4 1,-5 2,-5 3,-11 5,-16 -24,-5 -49,-1 -73,-3 -19,-7 -38,-15 -58,-19 -16,-4 -33,-6 -45,-18 -16,-15 -39,-24 -49,-45 -9,-18 -27,-28 -41,-41 22,3 44,2 65,2 22,12 44,22 69,27 -29,-32 -66,-56 -104,-75 -16,-8 -36,-4 -52,-13 -24,-12 -45,-31 -59,-54 -14,-22 -33,-42 -48,-63 32,5 65,5 95,16 32,11 66,20 100,19 -19,-13 -40,-25 -60,-37 -13,-8 -28,-15 -37,-29 -26,-38 -60,-69 -95,-98 -3,-23 -17,-41 -27,-61 24,12 48,23 74,30 28,12 53,30 77,49 30,23 62,42 95,61 -13,-19 -26,-36 -40,-54 -22,-22 -48,-39 -69,-61 -20,-20 -40,-40 -59,-60 25,-3 50,-4 73,1 13,3 26,7 35,17 21,23 43,44 65,66 11,10 21,23 35,28 -1,-20 -15,-36 -26,-52 -21,-29 -43,-56 -59,-87 z" />
     <path
   class="fil2"
   d="m 9530,13051 c 249,-60 503,-99 758,-120 22,33 45,66 67,100 -350,25 -700,79 -1037,179 -130,39 -259,85 -383,143 -66,30 -131,63 -192,103 8,0 16,1 24,1 -21,4 -43,-3 -65,-1 v 2 c -3,12 -6,23 -8,35 v -6 c -95,63 -183,140 -246,236 -51,78 -81,173 -69,267 12,113 76,213 155,291 1,-2 2,-6 2,-8 -3,13 -4,26 -6,40 12,-1 25,-1 37,0 112,102 245,177 382,240 -13,23 -23,48 -31,73 -102,-48 -202,-104 -294,-170 -67,-49 -131,-104 -185,-168 -67,-78 -120,-170 -137,-272 -16,-89 -1,-183 36,-265 46,-102 122,-187 206,-259 100,-85 213,-153 330,-211 208,-103 431,-175 656,-230 z"
   id="path3" />
     <path
   class="fil2"
   d="m 9317,13335 c 1,-6 5,-10 7,-16 21,225 40,449 61,674 9,106 19,212 27,319 l -1,-2 c -29,-29 -54,-60 -82,-90 -5,-71 -12,-142 -19,-213 v -2 c -62,-2 -123,2 -185,-2 61,-4 123,0 184,-3 0,-1 0,-5 0,-6 -11,-116 -22,-231 -33,-347 -1,-14 -1,-29 -6,-43 -19,85 -32,172 -52,257 -11,19 -22,39 -32,59 -7,7 -14,12 -22,17 -21,13 -40,28 -61,41 -11,8 -24,15 -34,25 -1,5 2,10 3,15 10,26 22,51 31,77 -38,71 -72,144 -109,216 -16,-29 -24,-61 -40,-89 l 2,-3 c 16,-30 31,-61 45,-92 40,-79 79,-159 118,-238 17,-30 29,-62 46,-93 33,-67 66,-134 100,-201 10,-22 12,-46 17,-70 11,-53 20,-107 32,-160 2,-10 3,-20 3,-30 z"
   id="path4" />
     <path
   class="fil2"
   d="m 10043,13453 c 55,-1 111,0 166,0 -46,228 -94,455 -140,683 -13,15 -29,27 -43,42 -18,13 -32,30 -51,42 43,-221 85,-443 128,-664 32,-33 67,-65 98,-99 -30,-2 -60,-1 -91,-1 -22,0 -44,-2 -66,3 l -3,1 c 1,-2 2,-5 2,-7 z"
   id="path5" />
     <path
   class="fil2"
   d="m 9663,13561 c 41,-31 95,-51 147,-37 54,14 93,61 115,110 -13,35 -22,70 -34,104 -4,15 -12,29 -11,44 -2,2 -5,3 -7,4 -3,-40 -4,-81 -15,-121 -7,-22 -20,-44 -43,-53 -29,-10 -62,-6 -89,8 -42,22 -73,61 -96,101 -29,52 -51,109 -60,168 -11,64 -19,131 -5,195 6,26 16,52 39,67 19,13 44,12 66,6 29,-10 54,-27 77,-47 7,-5 8,-14 9,-22 4,-22 9,-45 13,-68 31,-21 63,-41 94,-62 -37,-2 -75,-1 -113,-1 -14,0 -25,10 -37,17 -24,16 -51,28 -74,46 -1,0 -5,0 -7,0 16,-46 32,-94 49,-140 91,0 182,-2 273,0 -2,8 -12,10 -18,16 -22,21 -46,39 -68,60 -6,13 -6,27 -9,41 -10,45 -20,90 -28,135 -1,12 -12,19 -19,29 -22,27 -51,50 -82,67 -44,24 -100,28 -147,10 -49,-21 -88,-63 -105,-114 -15,-44 -17,-91 -14,-138 6,-74 24,-147 52,-216 32,-79 77,-157 147,-209 z"
   id="path6" />
     <path
   class="fil2"
   d="m 10424,13534 c 12,-3 26,-2 39,-2 70,1 140,-1 210,1 17,32 35,64 54,95 v 3 c -77,0 -154,0 -232,0 -11,51 -22,102 -33,153 -29,28 -64,50 -94,78 52,1 104,0 156,0 25,1 50,-1 75,2 -3,2 -6,4 -9,4 -76,-1 -152,-1 -228,-1 19,32 40,63 57,97 -11,56 -21,113 -31,169 81,0 162,0 244,0 -1,1 -1,4 -1,5 -29,21 -52,47 -77,71 -6,6 -13,11 -22,10 -82,0 -163,-1 -244,-1 1,-17 5,-33 9,-50 36,-185 75,-370 112,-555 4,-27 12,-53 15,-79 z"
   id="path7" />
     <path
   class="fil2"
   d="m 8762,13536 c 2,2 4,4 6,6 23,29 43,61 65,92 -11,51 -23,103 -34,154 -30,28 -64,51 -95,78 27,1 53,-3 79,3 -29,3 -57,1 -85,2 19,31 38,63 58,94 l -1,3 c -10,57 -20,114 -31,170 -7,8 -15,15 -24,22 -23,19 -45,38 -68,57 48,2 97,1 145,1 26,1 52,-3 78,3 -31,3 -62,2 -92,2 -47,0 -93,1 -139,0 4,-36 14,-72 21,-107 38,-194 78,-387 117,-580 z"
   id="path8" />
     <path
   class="fil2"
   d="m 9138,14420 c 39,-15 86,-13 122,9 41,25 63,72 68,118 -16,10 -31,20 -48,28 -6,-34 -14,-71 -40,-96 -19,-18 -47,-21 -70,-12 -37,13 -67,41 -91,71 -26,33 -46,69 -60,108 -12,35 -16,71 -20,107 -3,47 -3,95 16,139 11,25 32,47 60,51 32,4 62,-12 86,-32 29,-24 51,-56 68,-90 10,16 20,32 30,48 v 2 c -30,44 -65,86 -112,113 -31,18 -70,27 -105,16 -41,-14 -70,-49 -88,-86 -31,-66 -36,-142 -20,-212 16,-65 41,-129 81,-184 31,-43 72,-81 123,-98 z"
   id="path9" />
     <path
   class="fil2"
   d="m 9389,14420 c 83,-1 166,-1 249,-1 -4,21 -8,41 -12,62 -60,1 -119,1 -179,1 -12,62 -24,123 -36,185 55,0 110,0 165,0 -3,21 -7,42 -11,63 -56,0 -111,0 -167,0 -12,66 -26,132 -38,198 59,0 119,0 178,0 -4,21 -8,42 -13,63 -82,-1 -165,0 -247,0 36,-191 75,-381 111,-571 z"
   id="path10" />
     <path
   class="fil2"
   d="m 9695,14419 c 24,0 47,0 71,0 12,133 23,267 36,400 29,-55 56,-111 85,-167 39,-78 78,-156 118,-234 23,0 46,0 69,0 -37,191 -74,381 -112,572 -23,0 -46,0 -70,0 19,-96 38,-193 57,-289 6,-34 15,-68 19,-103 -65,130 -129,260 -194,389 -7,14 -13,29 -21,42 -10,-101 -19,-201 -28,-302 -4,-41 -6,-83 -12,-125 -27,129 -51,259 -77,388 -18,0 -35,0 -53,0 37,-190 74,-381 112,-571 z"
   id="path11" />
     <path
   class="fil2"
   d="m 10151,14418 c 83,0 165,0 248,0 -4,21 -7,42 -12,62 -60,1 -119,0 -178,1 -13,61 -25,123 -37,185 56,0 111,0 167,0 -5,21 -8,42 -13,62 -55,0 -111,0 -166,1 -13,66 -26,132 -39,198 60,0 119,0 178,0 -4,21 -8,41 -12,62 -82,1 -165,0 -248,1 37,-191 75,-381 112,-572 z"
   id="path12" />
     <path
   class="fil2"
   d="m 10346,14989 c 38,-190 75,-381 112,-571 19,-1 37,0 56,0 40,114 81,229 121,344 4,11 6,23 14,32 25,-125 49,-251 74,-377 18,0 36,0 53,0 -29,151 -59,301 -88,452 -12,56 -21,113 -34,170 -51,-142 -101,-283 -152,-424 -7,-21 -14,-42 -22,-62 -28,145 -56,290 -85,434 -16,4 -33,1 -49,2 z"
   id="path13" />
     <path
   class="fil2"
   d="m 10797,14417 c 87,0 174,0 261,0 -5,21 -9,43 -13,64 -33,0 -66,0 -99,0 -33,169 -66,338 -99,507 -24,1 -48,0 -72,0 27,-139 54,-279 82,-418 5,-30 12,-59 16,-89 -29,1 -59,1 -89,1 4,-22 8,-43 13,-65 z"
   id="path14" />
     <path
   class="fil2"
   d="m 10881,14885 c 308,-3 615,-29 918,-81 -5,30 -11,61 -16,91 -304,54 -611,80 -919,83 5,-31 11,-62 17,-93 z"
   id="path15" />
    </g>
    <g
   id="g25">
     <path
   class="fil3"
   d="m 9317,13335 c 0,10 -1,20 -3,30 -12,53 -21,107 -32,160 -5,24 -7,48 -17,70 -34,67 -67,134 -100,201 -17,31 -29,63 -46,93 -39,79 -78,159 -118,238 -14,31 -29,62 -45,92 -23,-1 -47,0 -70,-1 11,-27 24,-53 34,-80 128,-262 258,-523 387,-784 3,-6 6,-13 10,-19 z"
   id="path16" />
     <g
   id="g17">
      <path
   class="fil3"
   d="m 9636,13486 c 53,-33 117,-54 180,-44 54,7 104,39 132,85 35,52 43,115 44,176 15,-81 33,-162 49,-243 l 3,-1 c 19,32 38,65 59,97 -43,221 -85,443 -128,664 0,1 -1,2 -2,3 32,-1 65,-1 97,-1 37,1 75,-9 112,1 10,-24 25,-46 35,-69 2,6 3,12 4,18 3,-12 5,-24 6,-37 9,-53 21,-106 32,-159 35,-174 70,-347 105,-521 19,27 42,51 60,79 -3,26 -11,52 -15,79 -37,185 -76,370 -112,555 -4,17 -8,33 -9,50 81,0 162,1 244,1 9,1 16,-4 22,-10 25,-24 48,-50 77,-71 -12,57 -25,113 -37,170 -243,2 -486,1 -729,2 8,-39 16,-78 24,-117 -47,59 -109,107 -182,129 -57,17 -123,15 -177,-14 -50,-26 -86,-74 -106,-125 -30,-76 -33,-160 -26,-240 7,-74 20,-148 48,-217 38,-96 102,-184 190,-240 z m 27,75 v 0 c -70,52 -115,130 -147,209 -28,69 -46,142 -52,216 -3,47 -1,94 14,138 17,51 56,93 105,114 47,18 103,14 147,-10 31,-17 60,-40 82,-67 7,-10 18,-17 19,-29 8,-45 18,-90 28,-135 3,-14 3,-28 9,-41 22,-21 46,-39 68,-60 6,-6 16,-8 18,-16 11,-55 23,-110 34,-165 -36,22 -72,45 -108,67 -1,-15 7,-29 11,-44 12,-34 21,-69 34,-104 -22,-49 -61,-96 -115,-110 -52,-14 -106,6 -147,37 z"
   id="path17" />
     </g>
     <path
   class="fil3"
   d="m 8702,13458 c 20,26 37,54 60,78 -39,193 -79,386 -117,580 -7,35 -17,71 -21,107 46,1 92,0 139,0 30,0 61,1 92,-2 33,4 66,1 99,1 16,28 24,60 40,89 v 1 c -110,-1 -220,0 -329,0 -33,1 -65,-2 -98,1 -12,-1 -25,-1 -37,0 2,-14 3,-27 6,-40 52,-260 105,-520 158,-780 2,-12 5,-23 8,-35 z"
   id="path18" />
     <path
   class="fil3"
   d="m 10673,13533 c 28,-22 55,-48 80,-74 2,4 4,8 5,12 0,1 0,4 -1,5 -11,51 -19,102 -30,152 -19,-31 -37,-63 -54,-95 z"
   id="path19" />
     <path
   class="fil3"
   d="m 8768,13542 c 23,-4 47,-2 71,-2 48,0 97,0 145,-1 10,1 23,-1 27,9 17,30 34,59 51,88 -76,-2 -151,0 -227,0 l -2,-2 c -22,-31 -42,-63 -65,-92 z"
   id="path20" />
     <path
   class="fil3"
   d="m 9270,13604 c 5,14 5,29 6,43 11,116 22,231 33,347 -32,-23 -59,-51 -85,-80 -2,-18 -5,-35 -6,-53 20,-85 33,-172 52,-257 z"
   id="path21" />
     <path
   class="fil3"
   d="m 10599,13864 c 27,-22 49,-49 77,-70 1,2 2,6 3,8 -12,54 -23,108 -35,161 -75,0 -150,1 -225,1 -17,-34 -38,-65 -57,-97 76,0 152,0 228,1 3,0 6,-2 9,-4 z"
   id="path22" />
     <path
   class="fil3"
   d="m 8698,13871 c 28,-1 56,1 85,-2 36,3 73,-1 109,3 13,1 26,1 39,4 17,28 30,59 45,88 -73,1 -147,0 -220,1 -20,-31 -39,-63 -58,-94 z"
   id="path23" />
     <path
   class="fil3"
   d="m 9713,13974 c 12,-7 23,-17 37,-17 38,0 76,-1 113,1 -31,21 -63,41 -94,62 -43,0 -86,0 -130,0 23,-18 50,-30 74,-46 z"
   id="path24" />
     <path
   class="fil3"
   d="m 9237,14096 c 25,-29 49,-59 73,-89 7,71 14,142 19,213 -24,27 -45,56 -71,82 -2,-4 -3,-8 -5,-12 -6,-64 -12,-129 -16,-194 z"
   id="path25" />
    </g>
    <g
   id="g34">
     <path
   class="fil3"
   d="m 10365,13453 c 108,-1 216,-1 325,-1 24,2 49,-2 73,3 -2,5 -3,11 -5,16 -1,-4 -3,-8 -5,-12 -25,26 -52,52 -80,74 -70,-2 -140,0 -210,-1 -13,0 -27,-1 -39,2 -18,-28 -41,-52 -60,-79 z"
   id="path26" />
     <path
   class="fil3"
   d="m 8702,13456 c 22,-2 44,5 65,1 6,0 12,-1 17,-1 105,1 209,0 313,0 -8,53 -20,104 -29,156 -1,8 -4,16 -6,24 -17,-29 -34,-58 -51,-88 -4,-10 -17,-8 -27,-9 -48,1 -97,1 -145,1 -24,0 -48,-2 -71,2 -2,-2 -4,-4 -6,-6 -23,-24 -40,-52 -60,-78 z"
   id="path27" />
     <path
   class="fil3"
   d="m 10044,13459 c 22,-5 44,-3 66,-3 31,0 61,-1 91,1 -31,34 -66,66 -98,99 -21,-32 -40,-65 -59,-97 z"
   id="path28" />
     <path
   class="fil3"
   d="m 10368,13862 c 30,-28 65,-50 94,-78 74,0 147,-1 221,0 -2,6 -3,12 -4,18 -1,-2 -2,-6 -3,-8 -28,21 -50,48 -77,70 -25,-3 -50,-1 -75,-2 -52,0 -104,1 -156,0 z"
   id="path29" />
     <path
   class="fil3"
   d="m 8799,13788 c 74,0 147,0 221,0 -13,60 -26,120 -39,180 -76,0 -151,0 -226,0 l 1,-3 c 73,-1 147,0 220,-1 -15,-29 -28,-60 -45,-88 -13,-3 -26,-3 -39,-4 -36,-4 -73,0 -109,-3 -26,-6 -52,-2 -79,-3 31,-27 65,-50 95,-78 z"
   id="path30" />
     <path
   class="fil3"
   d="m 9224,13914 c 26,29 53,57 85,80 0,1 0,5 0,6 -61,3 -123,-1 -184,3 62,4 123,0 185,2 v 2 c -24,30 -48,60 -73,89 -44,-3 -89,1 -134,-1 -9,-26 -21,-51 -31,-77 -1,-5 -4,-10 -3,-15 10,-10 23,-17 34,-25 21,-13 40,-28 61,-41 8,-5 15,-10 22,-17 12,0 25,0 37,0 1,-2 1,-5 1,-6 z"
   id="path31" />
     <path
   class="fil3"
   d="m 10069,14136 c 53,-1 105,-1 158,-1 -1,13 -3,25 -6,37 -1,-6 -2,-12 -4,-18 -10,23 -25,45 -35,69 -37,-10 -75,0 -112,-1 -32,0 -65,0 -97,1 1,-1 2,-2 2,-3 19,-12 33,-29 51,-42 14,-15 30,-27 43,-42 z"
   id="path32" />
     <path
   class="fil3"
   d="m 8724,14138 c 65,-1 130,-1 196,0 -10,27 -23,53 -34,80 23,1 47,0 70,1 l -2,3 c -33,0 -66,3 -99,-1 -26,-6 -52,-2 -78,-3 -48,0 -97,1 -145,-1 23,-19 45,-38 68,-57 9,-7 17,-14 24,-22 z"
   id="path33" />
     <path
   class="fil3"
   d="m 9258,14302 c 26,-26 47,-55 71,-82 28,30 53,61 82,90 -52,2 -104,1 -156,1 -1,-7 -1,-14 -2,-21 2,4 3,8 5,12 z"
   id="path34" />
    </g>
   </g>
  </g>
  <path
   class="fil0"
   d="m 12047,12771 c 149,37 296,82 439,136 223,85 438,192 630,334 v 0 0 c 2,1 3,2 4,2 v 1 l 4,3 v 0 c 8,6 16,12 24,18 v 0 c 119,94 228,203 307,334 65,107 106,230 110,356 v 43 c -4,61 -13,122 -32,181 -37,115 -102,219 -180,311 -88,102 -193,189 -305,265 -195,132 -410,231 -631,309 -292,102 -595,168 -900,208 -215,28 -431,43 -648,45 -291,4 -583,-15 -872,-58 -309,-46 -614,-119 -906,-231 -220,-85 -434,-191 -623,-333 -106,-80 -204,-172 -283,-280 -66,-90 -118,-192 -143,-301 -10,-43 -15,-88 -17,-133 v -33 c 4,-129 46,-254 114,-363 69,-114 162,-211 264,-296 128,-106 271,-193 420,-267 231,-113 476,-196 726,-257 199,-49 401,-84 605,-107 357,-41 717,-46 1076,-18 275,22 549,64 817,131 z"
   id="path35" />
 </g>
</svg>
