<?xml version="1.0" encoding="UTF-8" standalone="no"?>
<!-- Creator: CorelDRAW X7 -->

<svg
   xml:space="preserve"
   width="310.29999mm"
   height="90.370003mm"
   version="1.1"
   style="clip-rule:evenodd;fill-rule:evenodd;image-rendering:optimizeQuality;shape-rendering:geometricPrecision;text-rendering:geometricPrecision"
   viewBox="0 0 31030 9037.0005"
   id="svg33"
   xmlns="http://www.w3.org/2000/svg"
   xmlns:svg="http://www.w3.org/2000/svg">
 <defs
   id="defs1">
  <style
   type="text/css"
   id="style1">
   <![CDATA[
    .fil0 {fill:none}
    .fil1 {fill:#373435;fill-rule:nonzero}
   ]]>
  </style>
 </defs>
 <g
   id="Layer_x0020_1"
   transform="translate(-8127,-11988)">
  <metadata
   id="CorelCorpID_0Corel-Layer" />
  <rect
   class="fil0"
   x="13990"
   y="13666"
   width="7359"
   height="7359"
   id="rect1" />
  <rect
   class="fil0"
   x="22894"
   y="13666"
   width="7359"
   height="7359"
   id="rect2" />
  <rect
   class="fil0"
   x="31798"
   y="13666"
   width="7359"
   height="7359"
   id="rect3" />
  <g
   id="_327588872">
   <polygon
   class="fil1"
   points="8623,15596 8817,15596 8811,15626 8730,15626 8679,15871 8648,15871 8698,15626 8617,15626 "
   id="polygon3" />
   <path
   class="fil1"
   d="m 8867,15667 c 49,0 80,36 80,87 0,9 -2,22 -3,27 h -151 c 0,2 0,7 0,10 0,31 21,59 62,59 18,0 39,-6 54,-19 l 9,21 c -16,15 -41,24 -65,24 -56,0 -90,-35 -90,-88 0,-66 46,-121 104,-121 z m 54,84 c 0,-33 -20,-59 -56,-59 -34,0 -63,31 -69,67 h 124 c 1,-2 1,-6 1,-8 z"
   id="path3" />
   <path
   class="fil1"
   d="m 9081,15667 c 34,0 57,14 70,37 l -22,18 c -10,-19 -28,-28 -47,-28 -46,0 -75,45 -75,92 0,41 25,62 58,62 19,0 35,-10 46,-23 l 17,20 c -16,18 -37,31 -66,31 -50,0 -85,-33 -85,-89 0,-66 46,-120 104,-120 z"
   id="path4" />
   <path
   class="fil1"
   d="m 9309,15740 c 1,-4 2,-10 2,-13 0,-24 -16,-33 -38,-33 -21,0 -43,16 -57,32 l -30,145 h -29 l 57,-275 h 28 l -21,105 c 16,-17 39,-34 66,-34 32,0 55,17 55,49 0,4 -1,13 -3,17 l -28,138 h -28 z"
   id="path5" />
   <path
   class="fil1"
   d="m 9519,15740 c 1,-4 2,-9 2,-13 0,-24 -16,-33 -36,-33 -24,0 -45,16 -59,32 l -30,145 h -29 l 41,-199 h 29 l -6,29 c 16,-17 39,-34 65,-34 33,0 55,17 55,49 0,4 -1,13 -2,17 l -28,138 h -29 z"
   id="path6" />
   <path
   class="fil1"
   d="m 9687,15667 c 52,0 84,36 84,88 0,63 -43,121 -103,121 -53,0 -84,-36 -84,-88 0,-63 43,-121 103,-121 z m -1,27 c -42,0 -72,45 -72,92 0,38 20,62 55,62 42,0 72,-45 72,-92 0,-37 -20,-62 -55,-62 z"
   id="path7" />
   <g
   id="g22">
    <path
   class="fil1"
   d="m 8127,14611 h 279 v 786 h 204 v -786 h 276 v -205 h -759 z m 1405,442 c 0,0 207,-43 207,-312 0,-270 -240,-335 -306,-335 h -467 v 991 h 199 v -316 h 137 l 259,316 h 256 z m -132,-177 h -230 v -262 h 249 c 0,0 117,8 117,136 0,128 -136,126 -136,126 z m 486,-470 v 991 h 695 v -214 h -506 v -179 h 483 v -201 h -483 v -189 h 506 v -208 z m 819,0 v 991 h 206 v -607 l 437,607 h 129 v -991 h -198 v 558 l -408,-558 z m 1241,0 h -365 v 991 h 413 c 0,0 411,-16 411,-514 0,-498 -459,-477 -459,-477 z m 25,784 h -186 v -573 h 192 c 91,0 227,59 227,308 0,249 -233,265 -233,265 z m 457,-30 168,-97 c 0,0 46,158 219,158 172,0 207,-61 207,-121 0,-61 -42,-95 -153,-118 -110,-23 -283,-4 -367,-167 -90,-172 2,-409 254,-436 241,-27 399,74 445,213 l -159,91 c 0,0 -90,-177 -320,-89 0,0 -69,36 -45,110 23,75 223,72 267,85 45,14 256,52 277,254 21,202 -94,286 -94,286 0,0 -82,84 -253,91 -172,6 -362,-23 -446,-260 z m 945,-786 c -49,0 -90,43 -90,97 0,53 41,96 90,96 50,0 90,-43 90,-96 0,-54 -40,-97 -90,-97 z m 0,180 c -43,0 -77,-37 -77,-83 0,-46 34,-83 77,-83 43,0 77,37 77,83 0,46 -34,83 -77,83 z m 16,-72 c 0,0 24,-4 24,-34 0,-30 -29,-31 -29,-31 h -44 v 108 h 15 v -43 h 13 l 28,43 h 20 z m -34,-16 v -36 c 0,0 20,0 26,0 6,0 16,5 16,18 0,13 -10,18 -10,18 z"
   id="path8" />
    <g
   id="g21">
     <polygon
   class="fil1"
   points="11689,11988 11146,12366 11461,11988 "
   id="polygon8" />
     <polygon
   class="fil1"
   points="11689,11988 11146,12366 11374,12366 "
   id="polygon9" />
     <polygon
   class="fil1"
   points="10461,13189 11282,12475 11053,12475 "
   id="polygon10" />
     <polygon
   class="fil1"
   points="11282,12475 10461,13189 10689,13189 "
   id="polygon11" />
     <polygon
   class="fil1"
   points="10007,13189 10587,12766 10357,12766 "
   id="polygon12" />
     <polygon
   class="fil1"
   points="10587,12766 10007,13189 10231,13189 "
   id="polygon13" />
     <polygon
   class="fil1"
   points="11617,12618 11390,12618 10917,13189 "
   id="polygon14" />
     <polygon
   class="fil1"
   points="11146,13189 11617,12618 10917,13189 "
   id="polygon15" />
     <polygon
   class="fil1"
   points="9901,13587 10461,13189 10231,13189 "
   id="polygon16" />
     <polygon
   class="fil1"
   points="10034,13975 10917,13189 10689,13189 "
   id="polygon17" />
     <polygon
   class="fil1"
   points="10781,13627 11367,13189 11146,13189 "
   id="polygon18" />
     <polygon
   class="fil1"
   points="10129,13587 9902,13587 10461,13189 "
   id="polygon19" />
     <polygon
   class="fil1"
   points="10267,13975 10917,13189 10034,13975 "
   id="polygon20" />
     <polygon
   class="fil1"
   points="11012,13627 11367,13189 10781,13627 "
   id="polygon21" />
    </g>
    <path
   class="fil1"
   d="m 9988,15667 c 53,0 85,36 85,88 0,63 -44,121 -103,121 -53,0 -85,-36 -85,-88 0,-63 44,-121 103,-121 z m 0,27 c -43,0 -72,45 -72,92 0,38 20,62 55,62 42,0 72,-45 72,-92 0,-37 -21,-62 -55,-62 z"
   id="path21" />
   </g>
   <path
   class="fil1"
   d="m 10104,15897 c 13,20 36,29 64,29 28,0 53,-15 62,-61 l 6,-26 c -15,21 -37,34 -63,34 -39,0 -71,-26 -71,-82 0,-63 37,-124 97,-124 25,0 51,15 65,36 l 6,-31 h 29 l -40,193 c -14,66 -51,87 -91,87 -35,0 -62,-8 -82,-34 z m 155,-170 c -11,-20 -33,-33 -58,-33 -42,0 -69,46 -69,92 0,37 21,59 52,59 22,0 44,-14 57,-31 z"
   id="path22" />
   <polygon
   class="fil1"
   points="10636,15596 10830,15596 10824,15626 10743,15626 10692,15871 10661,15871 10711,15626 10630,15626 "
   id="polygon22" />
   <path
   class="fil1"
   d="m 10879,15667 c 53,0 85,36 85,88 0,63 -44,121 -103,121 -53,0 -85,-36 -85,-88 0,-63 43,-121 103,-121 z m -1,27 c -42,0 -72,45 -72,92 0,38 21,62 55,62 43,0 72,-45 72,-92 0,-37 -20,-62 -55,-62 z"
   id="path23" />
   <polygon
   class="fil1"
   points="11123,15596 11317,15596 11311,15626 11229,15626 11179,15871 11147,15871 11198,15626 11117,15626 "
   id="polygon23" />
   <path
   class="fil1"
   d="m 11308,15672 h 29 l -7,30 c 19,-23 37,-34 69,-34 l -6,31 c -3,-1 -8,-1 -15,-1 -21,0 -42,15 -54,32 l -28,141 h -29 z"
   id="path24" />
   <path
   class="fil1"
   d="m 11762,15740 c 0,-4 2,-9 2,-13 0,-24 -16,-33 -36,-33 -24,0 -45,16 -59,32 l -30,145 h -29 l 41,-199 h 29 l -6,29 c 16,-17 39,-34 65,-34 33,0 55,17 55,49 0,4 -1,13 -2,17 l -28,138 h -29 z"
   id="path25" />
   <path
   class="fil1"
   d="m 11830,15820 c 10,16 34,31 62,31 26,0 43,-17 43,-35 0,-17 -20,-25 -41,-35 -27,-11 -57,-23 -57,-54 0,-32 25,-60 70,-60 32,0 59,14 71,32 l -17,21 c -8,-15 -31,-28 -55,-28 -25,0 -40,13 -40,30 0,16 19,24 39,33 27,10 58,23 58,56 0,34 -26,65 -72,65 -34,0 -62,-12 -79,-35 z"
   id="path26" />
   <path
   class="fil1"
   d="m 12107,15667 c 34,0 57,14 69,37 l -21,18 c -10,-19 -28,-28 -47,-28 -47,0 -75,45 -75,92 0,41 25,62 58,62 19,0 35,-10 46,-23 l 17,20 c -16,18 -37,31 -66,31 -50,0 -85,-33 -85,-89 0,-66 45,-120 104,-120 z"
   id="path27" />
   <path
   class="fil1"
   d="m 12295,15667 c 49,0 80,36 80,87 0,9 -2,22 -4,27 h -150 c 0,2 -1,7 -1,10 0,31 21,59 63,59 18,0 38,-6 53,-19 l 10,21 c -17,15 -41,24 -65,24 -56,0 -90,-35 -90,-88 0,-66 45,-121 104,-121 z m 53,84 c 0,-33 -19,-59 -56,-59 -34,0 -63,31 -68,67 h 124 c 0,-2 0,-6 0,-8 z"
   id="path28" />
   <path
   class="fil1"
   d="m 12549,15740 c 1,-4 2,-9 2,-13 0,-24 -16,-33 -36,-33 -24,0 -45,16 -59,32 l -30,145 h -29 l 41,-199 h 29 l -6,29 c 16,-17 39,-34 65,-34 33,0 56,17 56,49 0,4 -2,13 -3,17 l -28,138 h -29 z"
   id="path29" />
   <path
   class="fil1"
   d="m 12797,15596 h 29 l -57,275 h -28 l 5,-28 c -15,20 -36,33 -61,33 -42,0 -71,-30 -71,-82 0,-65 37,-127 97,-127 28,0 52,14 64,36 z m -101,252 c 23,0 44,-15 56,-34 l 18,-87 c -9,-18 -29,-33 -55,-33 -43,0 -71,46 -71,94 0,37 21,60 52,60 z"
   id="path30" />
   <path
   class="fil1"
   d="m 11520,15672 c -65,-4 -78,25 -78,25 l 9,22 c 0,0 53,-44 93,-9 6,6 9,15 8,24 l -6,42 c 0,0 -24,-35 -79,-26 -48,7 -62,58 -51,91 21,65 109,23 114,8 l -4,22 h 28 l 27,-138 c 0,0 11,-56 -61,-61 z m 15,159 c 0,0 -22,27 -56,23 -18,-3 -33,-15 -38,-32 -4,-12 -3,-26 11,-40 31,-30 71,-9 89,9 z"
   id="path31" />
   <path
   class="fil1"
   d="m 9873,15595 h -29 l -44,224 c 0,0 -15,78 64,44 l -2,-25 c 0,0 -46,19 -34,-28 11,-47 45,-215 45,-215 z"
   id="path32" />
   <path
   class="fil1"
   d="m 10342,15671 h 28 l -27,135 c 0,0 -2,64 75,23 0,0 22,-10 27,-46 l 21,-112 h 27 l -37,187 c 0,0 -10,75 -71,90 h -41 c 0,0 -36,-2 -59,-35 l 18,-20 c 0,0 15,29 46,28 h 27 c 0,0 45,0 55,-83 0,0 -33,35 -70,30 0,0 -54,-2 -46,-54 8,-52 27,-143 27,-143 z"
   id="path33" />
  </g>
 </g>
</svg>
