<?xml version="1.0" encoding="UTF-8"?>
<!DOCTYPE svg PUBLIC "-//W3C//DTD SVG 1.1//EN" "http://www.w3.org/Graphics/SVG/1.1/DTD/svg11.dtd">
<!-- Creator: CorelDRAW X7 -->
<svg xmlns="http://www.w3.org/2000/svg" xml:space="preserve" width="53.3654mm" height="39.6494mm" version="1.1" style="shape-rendering:geometricPrecision; text-rendering:geometricPrecision; image-rendering:optimizeQuality; fill-rule:evenodd; clip-rule:evenodd"
viewBox="0 0 5337 3965"
 xmlns:xlink="http://www.w3.org/1999/xlink">
 <defs>
  <style type="text/css">
   <![CDATA[
    .fil0 {fill:#373435;fill-rule:nonzero}
   ]]>
  </style>
 </defs>
 <g id="Layer_x0020_1">
  <metadata id="CorelCorpID_0Corel-Layer"/>
  <g id="_327588872">
   <polygon id="polygon3" class="fil0" points="496,3608 690,3608 684,3638 603,3638 552,3883 521,3883 571,3638 490,3638 "/>
   <path id="path3" class="fil0" d="M740 3679c49,0 80,36 80,87 0,9 -2,22 -3,27l-151 0c0,2 0,7 0,10 0,31 21,59 62,59 18,0 39,-6 54,-19l9 21c-16,15 -41,24 -65,24 -56,0 -90,-35 -90,-88 0,-66 46,-121 104,-121zm54 84c0,-33 -20,-59 -56,-59 -34,0 -63,31 -69,67l124 0c1,-2 1,-6 1,-8z"/>
   <path id="path4" class="fil0" d="M954 3679c34,0 57,14 70,37l-22 18c-10,-19 -28,-28 -47,-28 -46,0 -75,45 -75,92 0,41 25,62 58,62 19,0 35,-10 46,-23l17 20c-16,18 -37,31 -66,31 -50,0 -85,-33 -85,-89 0,-66 46,-120 104,-120z"/>
   <path id="path5" class="fil0" d="M1182 3752c1,-4 2,-10 2,-13 0,-24 -16,-33 -38,-33 -21,0 -43,16 -57,32l-30 145 -29 0 57 -275 28 0 -21 105c16,-17 39,-34 66,-34 32,0 55,17 55,49 0,4 -1,13 -3,17l-28 138 -28 0 26 -131z"/>
   <path id="path6" class="fil0" d="M1392 3752c1,-4 2,-9 2,-13 0,-24 -16,-33 -36,-33 -24,0 -45,16 -59,32l-30 145 -29 0 41 -199 29 0 -6 29c16,-17 39,-34 65,-34 33,0 55,17 55,49 0,4 -1,13 -2,17l-28 138 -29 0 27 -131z"/>
   <path id="path7" class="fil0" d="M1560 3679c52,0 84,36 84,88 0,63 -43,121 -103,121 -53,0 -84,-36 -84,-88 0,-63 43,-121 103,-121zm-1 27c-42,0 -72,45 -72,92 0,38 20,62 55,62 42,0 72,-45 72,-92 0,-37 -20,-62 -55,-62z"/>
   <g id="g22">
    <path id="path8" class="fil0" d="M0 2623l279 0 0 786 204 0 0 -786 276 0 0 -205 -759 0 0 205zm1405 442c0,0 207,-43 207,-312 0,-270 -240,-335 -306,-335l-467 0 0 991 199 0 0 -316 137 0 259 316 256 0 -285 -344zm-132 -177l-230 0 0 -262 249 0c0,0 117,8 117,136 0,128 -136,126 -136,126zm486 -470l0 991 695 0 0 -214 -506 0 0 -179 483 0 0 -201 -483 0 0 -189 506 0 0 -208 -695 0zm819 0l0 991 206 0 0 -607 437 607 129 0 0 -991 -198 0 0 558 -408 -558 -166 0zm1241 0l-365 0 0 991 413 0c0,0 411,-16 411,-514 0,-498 -459,-477 -459,-477zm25 784l-186 0 0 -573 192 0c91,0 227,59 227,308 0,249 -233,265 -233,265zm457 -30l168 -97c0,0 46,158 219,158 172,0 207,-61 207,-121 0,-61 -42,-95 -153,-118 -110,-23 -283,-4 -367,-167 -90,-172 2,-409 254,-436 241,-27 399,74 445,213l-159 91c0,0 -90,-177 -320,-89 0,0 -69,36 -45,110 23,75 223,72 267,85 45,14 256,52 277,254 21,202 -94,286 -94,286 0,0 -82,84 -253,91 -172,6 -362,-23 -446,-260zm945 -786c-49,0 -90,43 -90,97 0,53 41,96 90,96 50,0 90,-43 90,-96 0,-54 -40,-97 -90,-97zm0 180c-43,0 -77,-37 -77,-83 0,-46 34,-83 77,-83 43,0 77,37 77,83 0,46 -34,83 -77,83zm16 -72c0,0 24,-4 24,-34 0,-30 -29,-31 -29,-31l-44 0 0 108 15 0 0 -43 13 0 28 43 20 0 -27 -43zm-34 -16l0 -36c0,0 20,0 26,0 6,0 16,5 16,18 0,13 -10,18 -10,18l-32 0z"/>
    <g id="g21">
     <polygon id="polygon8" class="fil0" points="3562,0 3019,378 3334,0 "/>
     <polygon id="polygon9" class="fil0" points="3562,0 3019,378 3247,378 "/>
     <polygon id="polygon10" class="fil0" points="2334,1201 3155,487 2926,487 "/>
     <polygon id="polygon11" class="fil0" points="3155,487 2334,1201 2562,1201 "/>
     <polygon id="polygon12" class="fil0" points="1880,1201 2460,778 2230,778 "/>
     <polygon id="polygon13" class="fil0" points="2460,778 1880,1201 2104,1201 "/>
     <polygon id="polygon14" class="fil0" points="3490,630 3263,630 2790,1201 "/>
     <polygon id="polygon15" class="fil0" points="3019,1201 3490,630 2790,1201 "/>
     <polygon id="polygon16" class="fil0" points="1774,1599 2334,1201 2104,1201 "/>
     <polygon id="polygon17" class="fil0" points="1907,1987 2790,1201 2562,1201 "/>
     <polygon id="polygon18" class="fil0" points="2654,1639 3240,1201 3019,1201 "/>
     <polygon id="polygon19" class="fil0" points="2002,1599 1775,1599 2334,1201 "/>
     <polygon id="polygon20" class="fil0" points="2140,1987 2790,1201 1907,1987 "/>
     <polygon id="polygon21" class="fil0" points="2885,1639 3240,1201 2654,1639 "/>
    </g>
    <path id="path21" class="fil0" d="M1861 3679c53,0 85,36 85,88 0,63 -44,121 -103,121 -53,0 -85,-36 -85,-88 0,-63 44,-121 103,-121zm0 27c-43,0 -72,45 -72,92 0,38 20,62 55,62 42,0 72,-45 72,-92 0,-37 -21,-62 -55,-62z"/>
   </g>
   <path id="path22" class="fil0" d="M1977 3909c13,20 36,29 64,29 28,0 53,-15 62,-61l6 -26c-15,21 -37,34 -63,34 -39,0 -71,-26 -71,-82 0,-63 37,-124 97,-124 25,0 51,15 65,36l6 -31 29 0 -40 193c-14,66 -51,87 -91,87 -35,0 -62,-8 -82,-34l18 -21zm155 -170c-11,-20 -33,-33 -58,-33 -42,0 -69,46 -69,92 0,37 21,59 52,59 22,0 44,-14 57,-31l18 -87z"/>
   <polygon id="polygon22" class="fil0" points="2509,3608 2703,3608 2697,3638 2616,3638 2565,3883 2534,3883 2584,3638 2503,3638 "/>
   <path id="path23" class="fil0" d="M2752 3679c53,0 85,36 85,88 0,63 -44,121 -103,121 -53,0 -85,-36 -85,-88 0,-63 43,-121 103,-121zm-1 27c-42,0 -72,45 -72,92 0,38 21,62 55,62 43,0 72,-45 72,-92 0,-37 -20,-62 -55,-62z"/>
   <polygon id="polygon23" class="fil0" points="2996,3608 3190,3608 3184,3638 3102,3638 3052,3883 3020,3883 3071,3638 2990,3638 "/>
   <path id="path24" class="fil0" d="M3181 3684l29 0 -7 30c19,-23 37,-34 69,-34l-6 31c-3,-1 -8,-1 -15,-1 -21,0 -42,15 -54,32l-28 141 -29 0 41 -199z"/>
   <path id="path25" class="fil0" d="M3635 3752c0,-4 2,-9 2,-13 0,-24 -16,-33 -36,-33 -24,0 -45,16 -59,32l-30 145 -29 0 41 -199 29 0 -6 29c16,-17 39,-34 65,-34 33,0 55,17 55,49 0,4 -1,13 -2,17l-28 138 -29 0 27 -131z"/>
   <path id="path26" class="fil0" d="M3703 3832c10,16 34,31 62,31 26,0 43,-17 43,-35 0,-17 -20,-25 -41,-35 -27,-11 -57,-23 -57,-54 0,-32 25,-60 70,-60 32,0 59,14 71,32l-17 21c-8,-15 -31,-28 -55,-28 -25,0 -40,13 -40,30 0,16 19,24 39,33 27,10 58,23 58,56 0,34 -26,65 -72,65 -34,0 -62,-12 -79,-35l18 -21z"/>
   <path id="path27" class="fil0" d="M3980 3679c34,0 57,14 69,37l-21 18c-10,-19 -28,-28 -47,-28 -47,0 -75,45 -75,92 0,41 25,62 58,62 19,0 35,-10 46,-23l17 20c-16,18 -37,31 -66,31 -50,0 -85,-33 -85,-89 0,-66 45,-120 104,-120z"/>
   <path id="path28" class="fil0" d="M4168 3679c49,0 80,36 80,87 0,9 -2,22 -4,27l-150 0c0,2 -1,7 -1,10 0,31 21,59 63,59 18,0 38,-6 53,-19l10 21c-17,15 -41,24 -65,24 -56,0 -90,-35 -90,-88 0,-66 45,-121 104,-121zm53 84c0,-33 -19,-59 -56,-59 -34,0 -63,31 -68,67l124 0c0,-2 0,-6 0,-8z"/>
   <path id="path29" class="fil0" d="M4422 3752c1,-4 2,-9 2,-13 0,-24 -16,-33 -36,-33 -24,0 -45,16 -59,32l-30 145 -29 0 41 -199 29 0 -6 29c16,-17 39,-34 65,-34 33,0 56,17 56,49 0,4 -2,13 -3,17l-28 138 -29 0 27 -131z"/>
   <path id="path30" class="fil0" d="M4670 3608l29 0 -57 275 -28 0 5 -28c-15,20 -36,33 -61,33 -42,0 -71,-30 -71,-82 0,-65 37,-127 97,-127 28,0 52,14 64,36l22 -107zm-101 252c23,0 44,-15 56,-34l18 -87c-9,-18 -29,-33 -55,-33 -43,0 -71,46 -71,94 0,37 21,60 52,60z"/>
   <path id="path31" class="fil0" d="M3393 3684c-65,-4 -78,25 -78,25l9 22c0,0 53,-44 93,-9 6,6 9,15 8,24l-6 42c0,0 -24,-35 -79,-26 -48,7 -62,58 -51,91 21,65 109,23 114,8l-4 22 28 0 27 -138c0,0 11,-56 -61,-61zm15 159c0,0 -22,27 -56,23 -18,-3 -33,-15 -38,-32 -4,-12 -3,-26 11,-40 31,-30 71,-9 89,9l-6 40z"/>
   <path id="path32" class="fil0" d="M1746 3607l-29 0 -44 224c0,0 -15,78 64,44l-2 -25c0,0 -46,19 -34,-28 11,-47 45,-215 45,-215z"/>
   <path id="path33" class="fil0" d="M2215 3683l28 0 -27 135c0,0 -2,64 75,23 0,0 22,-10 27,-46l21 -112 27 0 -37 187c0,0 -10,75 -71,90l-41 0c0,0 -36,-2 -59,-35l18 -20c0,0 15,29 46,28l27 0c0,0 45,0 55,-83 0,0 -33,35 -70,30 0,0 -54,-2 -46,-54 8,-52 27,-143 27,-143z"/>
  </g>
 </g>
</svg>
