<?xml version="1.0" encoding="UTF-8" standalone="no"?>
<!-- Creator: CorelDRAW X7 -->

<svg
   xml:space="preserve"
   width="66.379013mm"
   height="30.64596mm"
   version="1.1"
   style="clip-rule:evenodd;fill-rule:evenodd;image-rendering:optimizeQuality;shape-rendering:geometricPrecision;text-rendering:geometricPrecision"
   viewBox="0 0 6637.9015 3064.5961"
   id="svg1"
   xmlns="http://www.w3.org/2000/svg"
   xmlns:svg="http://www.w3.org/2000/svg">
 <defs
   id="defs1">
  <style
   type="text/css"
   id="style1">
   <![CDATA[
    .fil0 {fill:#373435;fill-rule:nonzero}
   ]]>
  </style>
 </defs>
 <g
   id="Layer_x0020_1"
   transform="translate(-7476,-12437.404)">
  <metadata
   id="CorelCorpID_0Corel-Layer" />
  <path
   class="fil0"
   d="m 11580,15174 c 55,105 110,210 158,319 -57,-18 -66,-83 -92,-128 -45,0 -91,1 -136,1 -25,46 -39,106 -92,128 48,-110 109,-213 162,-320 z m -55,163 v 0 c 35,1 71,1 107,2 -17,-36 -35,-72 -52,-107 -19,35 -37,70 -55,105 z m 343,-158 c 44,6 94,2 131,31 38,38 23,94 19,141 -38,22 -79,38 -123,42 -1,35 -3,71 -5,106 -5,-6 -15,-18 -20,-25 -8,-98 0,-197 -2,-295 z m 27,27 v 0 c -1,52 -2,105 -2,157 32,-9 81,0 97,-39 6,-28 9,-57 7,-86 -33,-14 -67,-26 -102,-32 z m -2873,-5 c 32,-37 103,-26 127,16 -45,-1 -108,-35 -125,30 37,33 73,69 117,90 33,-3 64,-9 95,-18 0,-13 0,-38 0,-51 -23,-18 -45,-36 -67,-54 29,14 93,2 93,50 17,54 -29,91 -77,100 41,86 -68,164 -144,123 -84,-21 -92,-160 -2,-178 -27,-26 -55,-78 -17,-108 z m -18,199 v 0 c 4,41 44,64 79,76 52,-4 121,-72 57,-109 -12,-1 -35,-4 -47,-5 -6,-13 -18,-40 -24,-54 -24,27 -70,49 -65,92 z m 4619,-1295 c 129,-3 280,-12 384,79 86,74 119,190 103,300 1,131 -105,238 -224,275 -90,22 -185,14 -277,17 6,-220 -4,-440 4,-660 z m 45,619 v 0 c 108,3 229,-4 313,-83 105,-112 102,-315 -16,-417 -83,-65 -193,-72 -295,-71 -4,190 1,381 -2,571 z m -1674,46 c 122,-229 236,-461 360,-689 107,235 238,459 342,695 -16,-1 -48,-4 -64,-6 -55,-82 -76,-186 -139,-260 -97,-17 -197,-6 -293,4 -56,82 -95,174 -139,262 -22,-2 -44,-4 -67,-6 z m 354,-559 v 0 c -44,79 -81,161 -125,240 83,0 166,0 248,-1 -41,-79 -76,-162 -123,-239 z m -2052,564 c 113,-230 231,-459 353,-685 126,221 230,456 350,681 -23,1 -47,3 -70,4 -39,-88 -89,-172 -123,-262 -101,-12 -203,-2 -305,-10 -55,83 -94,177 -136,267 -23,2 -46,4 -69,5 z m 229,-324 v 0 c 82,0 163,0 245,-1 -44,-80 -82,-164 -127,-244 -34,84 -76,164 -118,245 z m -723,-1985 c 7,-31 24,-37 50,-17 -6,31 -23,36 -50,17 z m -90,100 c -8,-32 3,-45 35,-39 8,32 -3,45 -35,39 z m -74,49 c 19,-11 55,-32 73,-43 -32,51 -86,80 -133,113 3,-18 9,-54 12,-72 12,0 36,2 48,2 z m -159,107 c 17,-6 51,-17 68,-23 -21,37 -37,78 -67,109 -32,16 -69,28 -71,69 -28,46 -125,75 -84,138 -100,53 -110,174 -174,256 -123,163 -203,352 -297,532 -67,123 -136,248 -165,387 -19,87 -32,188 -105,250 -23,27 -69,45 -62,87 6,82 -2,164 -29,242 -58,-4 -118,-26 -139,-85 -44,-120 -57,-260 -1,-377 59,-146 99,-297 158,-442 52,-125 128,-236 197,-351 99,-157 204,-311 328,-449 130,-135 282,-247 443,-343 z m -2003,942 c 33,-1 66,-2 99,-3 253,525 505,1050 758,1575 37,68 12,146 6,218 -15,-42 -31,-84 -51,-124 -273,-554 -536,-1113 -812,-1666 z m 139,-1 c 76,0 153,-1 230,0 151,329 308,654 459,982 22,50 55,100 52,157 -2,131 5,262 -4,392 -249,-509 -487,-1023 -737,-1531 z m 1341,440 c 15,-1 45,-4 60,-6 3,205 2,411 2,616 4,35 -13,106 -59,66 -5,-225 2,-450 -3,-676 z m 429,-5 c 86,-28 177,7 248,56 -5,19 -14,36 -27,51 -33,-7 -58,-32 -85,-50 -56,-10 -122,-20 -166,26 -51,35 -32,103 -33,154 75,62 176,67 258,114 97,56 113,210 25,283 -102,101 -304,69 -363,-64 28,-49 67,0 94,22 59,63 163,52 228,3 35,-38 56,-109 16,-151 -37,-49 -95,-74 -152,-86 -60,-26 -133,-47 -161,-111 -47,-96 15,-221 118,-247 z m 441,9 c 138,-7 276,-3 415,-2 0,13 -1,39 -1,52 -60,-1 -120,0 -180,12 2,204 11,410 -4,614 -12,2 -37,6 -49,7 1,-211 -1,-422 -2,-632 -61,0 -122,0 -183,-1 1,-13 3,-38 4,-50 z m 1720,-2 c 16,-2 48,-7 63,-10 0,208 0,416 1,623 77,0 155,0 232,0 -2,14 -5,42 -6,56 -97,1 -194,1 -291,-1 4,-222 1,-445 1,-668 z m 1767,-1 c 15,-3 43,-10 58,-13 -2,231 2,462 -3,693 -139,-159 -274,-322 -407,-486 -16,-16 -32,-32 -48,-48 -1,176 4,352 -1,528 -15,4 -44,12 -58,16 2,-234 1,-467 1,-700 23,24 46,49 69,73 v 15 c 32,31 62,62 91,96 l 2,16 25,5 -7,29 36,6 -7,27 16,-11 c 29,48 65,92 104,133 42,48 79,100 125,144 5,-174 -4,-349 4,-523 z m -3650,1063 c 51,87 11,196 23,292 38,3 84,-10 113,23 -47,4 -94,6 -141,7 1,-107 -5,-215 5,-322 z m 274,1 c 48,48 16,125 26,185 -8,47 20,112 -26,145 -5,-110 -5,-220 0,-330 z m 478,14 c 56,1 113,1 169,1 0,7 0,19 0,25 -47,2 -95,2 -142,3 -1,35 -1,70 -1,106 46,5 100,-12 137,23 -45,4 -92,5 -137,6 0,38 1,77 2,116 53,2 112,-12 160,16 -62,11 -125,9 -188,8 -1,-102 0,-203 0,-304 z m 355,-1 c 42,-2 83,0 125,5 3,12 8,35 11,47 -40,-11 -85,-47 -123,-15 -29,11 -17,48 -25,72 53,24 127,29 154,89 16,31 -10,63 -15,94 -34,10 -67,19 -100,29 -30,-20 -66,-38 -71,-78 29,16 56,32 84,49 41,-11 69,-42 89,-78 -42,-30 -89,-52 -135,-75 -42,-14 -26,-64 -33,-97 10,-11 30,-32 39,-42 z m 287,108 c 41,-88 155,-153 241,-86 -78,-4 -185,4 -208,96 -9,-2 -25,-8 -33,-10 z m 1123,-108 c 61,0 123,-1 184,12 -49,25 -104,16 -156,17 0,36 0,71 1,106 44,1 88,3 132,7 -36,35 -88,19 -132,22 -1,38 -2,76 -2,115 51,8 114,-18 156,22 -61,6 -122,4 -184,3 2,-101 0,-203 1,-304 z m 318,82 c -14,-95 159,-128 175,-31 -44,-13 -90,-48 -133,-12 -4,17 -12,51 -16,69 51,20 103,41 152,67 2,41 17,100 -31,122 -55,43 -143,10 -156,-59 49,31 107,81 156,22 46,-114 -150,-79 -147,-178 z m 579,67 c 7,-53 -20,-121 26,-162 4,110 4,221 -3,331 -44,-44 -16,-114 -23,-169 z m 200,-162 c 20,31 42,61 64,90 52,51 96,108 142,164 0,-85 -3,-171 1,-256 6,7 18,22 24,29 5,99 0,199 0,299 -73,-81 -137,-169 -211,-249 7,80 6,160 6,240 -7,0 -21,1 -28,1 -1,-106 1,-212 2,-318 z m 371,98 c 62,-53 176,-139 248,-58 -52,0 -111,-16 -155,22 -75,55 -62,185 23,224 39,28 86,7 129,0 -23,65 -104,43 -151,21 -71,-43 -84,-134 -94,-209 z m -3517,-85 c 45,1 89,1 134,1 l -4,28 c -35,0 -71,0 -106,1 3,37 6,73 9,110 26,-1 53,-3 79,-4 1,7 1,23 1,30 -27,-1 -55,-2 -83,-4 1,51 2,102 0,152 -7,-6 -22,-18 -29,-24 -5,-96 2,-193 -1,-290 z m 922,166 c 10,-2 28,-7 37,-10 0,100 109,160 196,117 -4,11 -12,33 -16,45 -99,8 -204,-44 -217,-152 z m 3001,98 c 35,-11 46,3 34,43 -35,10 -46,-4 -34,-43 z"
   id="path1" />
 </g>
</svg>
