<?xml version="1.0" encoding="UTF-8"?>
<!DOCTYPE svg PUBLIC "-//W3C//DTD SVG 1.1//EN" "http://www.w3.org/Graphics/SVG/1.1/DTD/svg11.dtd">
<!-- Creator: CorelDRAW X7 -->
<svg xmlns="http://www.w3.org/2000/svg" xml:space="preserve" width="215.9mm" height="279.4mm" version="1.1" style="shape-rendering:geometricPrecision; text-rendering:geometricPrecision; image-rendering:optimizeQuality; fill-rule:evenodd; clip-rule:evenodd"
viewBox="0 0 21590 27940"
 xmlns:xlink="http://www.w3.org/1999/xlink">
 <defs>
  <style type="text/css">
   <![CDATA[
    .fil0 {fill:#4B4B4D}
   ]]>
  </style>
 </defs>
 <g id="Layer_x0020_1">
  <metadata id="CorelCorpID_0Corel-Layer"/>
  <path class="fil0" d="M9428 14980c21,-8 90,-10 181,-47 105,-43 199,-108 276,-184 26,-25 87,-90 104,-127l-171 0 25 -90 204 1c15,-26 34,-57 37,-87l-219 1 18 -69c10,-29 -1,-11 14,-20l216 0c50,-168 -24,-354 -203,-406 -221,-65 -466,68 -618,210 -18,17 -87,92 -96,118l133 0 -30 87 -160 1c-13,12 -40,67 -42,86l188 0 -28 88 -189 1c-50,172 9,358 181,418 20,7 54,11 73,19l106 0zm2970 -1629c-70,-22 -107,-46 -197,-44 -208,4 -352,160 -348,391 4,222 160,381 370,368 86,-6 120,-36 175,-69l0 56 230 0 0 -1080 -227 -1 -3 379zm-5024 -30c33,71 17,151 197,243 87,45 238,80 311,133 43,31 66,99 6,141 -87,61 -259,20 -352,-26 -51,-25 -112,-69 -140,-82l-1 229c47,40 192,89 269,100 117,16 233,9 331,-29 223,-85 257,-333 147,-475 -123,-159 -405,-176 -476,-267 -60,-76 42,-145 205,-126 53,6 104,23 149,39 32,11 109,48 133,52l0 -208c-89,-59 -296,-82 -307,-85l-129 0c-42,19 -209,12 -304,163 -27,43 -22,67 -39,108l0 90zm1644 730l230 0 2 -462c5,-19 56,-73 73,-85 83,-61 171,-16 190,74 12,58 7,244 4,313 55,-13 114,-59 231,-70 1,-195 30,-370 -104,-464 -93,-67 -228,-67 -325,3 -19,15 -66,66 -72,68l1 -456 -231 1 1 1078zm2412 -82l1 -142c-77,34 -131,111 -305,100 -123,-8 -217,-105 -205,-200l522 0c-2,-124 -16,-194 -75,-276 -158,-218 -559,-190 -663,93 -80,221 29,406 174,475 85,41 192,56 298,45 118,-13 176,-44 253,-95zm2044 2l0 -144c-92,55 -156,111 -305,100 -111,-8 -209,-85 -205,-199l523 -1c-2,-202 -79,-366 -291,-410 -352,-74 -555,262 -444,524 34,82 93,141 170,178 122,60 302,64 437,13 47,-18 78,-40 115,-61zm-3387 -549l0 -101 -232 1 1 495c72,19 142,27 204,81l27 21 0 -328c4,-27 89,-157 196,-124 92,29 78,149 78,252 0,109 3,223 -1,332l231 0c-2,-115 0,-229 0,-343 0,-113 9,-213 -47,-294 -78,-110 -249,-140 -367,-68 -42,26 -60,50 -90,76zm-1163 596l0 -166c-86,20 -168,74 -280,39 -195,-60 -190,-338 -11,-399 134,-46 231,22 279,34l1 -171c-142,-52 -313,-72 -452,-3 -280,140 -280,547 6,674 65,29 151,43 233,40 90,-3 148,-28 224,-48zm5293 -633l0 -14c-36,-15 -59,-44 -108,-58 -119,-33 -195,65 -246,154l-33 57 -1 -203 -229 0 -1 727c25,7 203,6 231,1 -3,-71 -1,-146 -1,-218 0,-103 -1,-107 41,-186 24,-47 59,-99 109,-115 78,-26 137,34 173,44l65 -189zm-4978 1244l-38 140c196,-4 324,26 445,-87 55,-51 60,-96 83,-184l53 -199c19,-43 100,-14 164,-23l29 -129c-173,0 -374,-33 -471,136 -60,106 -55,324 -112,342 -26,8 -117,1 -153,4zm2295 -575l225 -1 2 -729 -231 -2c3,120 1,243 1,365 0,64 -8,325 3,367zm-1173 205l0 550 364 0 0 -83 -274 0 0 -194 257 -1 0 -79c-85,-3 -181,1 -257,-4l0 -186 266 -1 0 -83 -356 0 0 81zm2037 -406l0 -349c-64,-34 -143,-68 -222,-18 -59,37 -90,107 -90,206 1,99 36,166 96,200 91,52 165,0 216,-39zm-806 915l-1 -80c-48,28 -100,58 -176,47 -58,-9 -104,-60 -105,-122l288 0c-4,-113 -35,-205 -137,-224 -254,-47 -304,289 -148,394 90,61 198,32 279,-15zm2421 25l0 -79c-54,5 -91,45 -170,15 -116,-45 -98,-222 -3,-259 75,-29 114,11 163,31l0 -88c-76,-27 -153,-47 -230,0 -56,35 -93,96 -95,188 -5,179 166,263 335,192zm-1872 -1l0 -78c-20,2 -50,17 -78,22 -201,36 -218,-217 -94,-266 77,-30 115,15 163,31l0 -88c-42,-13 -59,-26 -113,-27 -125,-3 -209,74 -212,215 -4,179 169,265 334,191zm208 -324l71 0c2,71 -11,229 15,284 31,65 143,86 217,38 6,-17 4,-52 3,-77 -16,5 -151,84 -151,-43l1 -202 129 0 0 -75 -130 0 0 -84c-16,11 -148,132 -155,159zm-1415 341l82 0 0 -631 -82 0 0 631zm2013 -323l0 -93 -82 0 -1 416 82 0c5,-69 -9,-214 9,-267 11,-32 33,-63 66,-73 40,-13 81,14 98,35 9,-6 6,-3 14,-14 6,-8 8,-13 12,-20 10,-16 16,-22 21,-42 -32,-15 -72,-64 -134,-34 -49,24 -54,56 -85,92zm-1284 -1526c-49,27 -97,30 -136,112 -34,73 1,145 80,144 96,-2 190,-109 168,-193 -11,-41 -36,-45 -68,-63l-44 0zm-738 645l313 0c-6,-211 -305,-215 -313,0zm2043 -1l314 1c-10,-208 -299,-219 -314,-1zm414 1205l81 0 2 -416 -82 0 -1 416zm-2072 -252l206 1c-3,-61 -38,-103 -101,-101 -64,1 -94,44 -105,100zm2109 -327c-60,22 -57,103 7,83 57,-18 61,-109 -7,-83z"/>
 </g>
</svg>
