<?xml version="1.0" encoding="UTF-8" standalone="no"?>
<!-- Creator: CorelDRAW X7 -->

<svg
   xml:space="preserve"
   width="67.698647mm"
   height="25.32mm"
   version="1.1"
   style="clip-rule:evenodd;fill-rule:evenodd;image-rendering:optimizeQuality;shape-rendering:geometricPrecision;text-rendering:geometricPrecision"
   viewBox="0 0 6769.8648 2532"
   id="svg5"
   xmlns="http://www.w3.org/2000/svg"
   xmlns:svg="http://www.w3.org/2000/svg">
 <defs
   id="defs1">
  <style
   type="text/css"
   id="style1">
   <![CDATA[
    .fil1 {fill:#4B4B4D}
    .fil0 {fill:#4B4B4D;fill-rule:nonzero}
   ]]>
  </style>
 </defs>
 <g
   id="Layer_x0020_1"
   transform="translate(-7410,-12704)">
  <metadata
   id="CorelCorpID_0Corel-Layer" />
  <g
   id="_327567104">
   <path
   class="fil0"
   d="m 12988,13795 c 15,-23 14,-49 -3,-69 -18,-19 -47,-24 -70,-10 -16,9 -28,22 -39,35 -41,52 -81,103 -122,154 -12,15 -24,31 -36,46 -2,4 -4,12 18,12 h 65 c 49,-42 97,-85 146,-127 15,-13 30,-25 41,-41 z"
   id="path1" />
   <path
   class="fil1"
   d="m 13239,13316 c 246,200 461,438 628,707 147,238 258,503 312,778 3,18 -2,35 -12,37 v 0 c -10,3 -27,-30 -27,-30 v 0 c -94,-248 -228,-482 -385,-694 -181,-245 -395,-465 -631,-656 -236,-191 -496,-355 -772,-481 -227,-104 -469,-184 -716,-226 v 0 c 0,0 -24,-14 -25,-24 -1,-11 8,-23 46,-23 259,5 517,57 760,145 298,107 576,268 822,467 z"
   id="path2" />
   <path
   class="fil0"
   d="m 11018,15165 c -55,0 -99,-44 -99,-99 0,-54 44,-99 99,-99 55,0 99,45 99,99 0,55 -44,99 -99,99 z m 0,-268 c -94,0 -170,76 -170,169 0,94 76,170 170,170 94,0 169,-76 169,-170 0,-93 -75,-169 -169,-169 z m -358,7 h -71 v 325 h 232 v -66 h -161 z m 964,325 h 71 v -325 h -71 z m 436,-260 h 99 v 260 h 71 v -260 h 100 v -65 h -270 z m 320,260 h 70 v -325 h -70 z m 381,-90 c -19,18 -48,30 -75,30 -75,0 -102,-52 -103,-101 0,-29 11,-56 29,-75 18,-19 43,-28 74,-28 28,0 53,10 71,28 l 4,4 48,-46 -4,-4 c -33,-33 -74,-50 -119,-50 -51,0 -94,16 -124,47 -31,31 -49,77 -48,124 0,78 45,168 172,168 48,0 91,-17 123,-48 l 4,-4 -48,-50 z m 227,-111 c -39,-5 -65,-12 -65,-33 0,-22 23,-36 59,-36 31,0 56,14 67,28 l 53,-37 c -27,-33 -63,-53 -121,-53 -64,1 -128,30 -128,96 0,74 65,92 129,99 60,6 67,26 67,40 0,37 -51,40 -66,40 -40,0 -71,-17 -83,-45 l -1,-2 -57,35 c 22,51 68,76 140,76 66,0 140,-27 140,-104 0,-76 -66,-96 -134,-104 z m -1090,0 c -39,-5 -65,-12 -65,-33 0,-22 23,-36 60,-36 30,0 55,14 67,28 l 52,-37 c -27,-33 -63,-53 -121,-53 -64,1 -127,30 -127,96 0,74 64,92 128,99 60,6 67,26 67,40 0,37 -50,40 -66,40 -40,0 -71,-17 -83,-45 l -1,-2 -57,35 c 23,51 68,76 140,76 67,0 140,-27 140,-104 0,-76 -65,-96 -134,-104 z m -501,70 h 82 v 44 c -16,16 -40,25 -67,25 -77,0 -105,-57 -105,-96 0,-64 43,-107 105,-107 28,0 59,11 78,29 l 1,1 46,-47 v -1 c -34,-31 -78,-49 -125,-49 -122,0 -176,88 -176,174 0,63 46,165 176,165 55,0 101,-19 137,-58 l 1,-2 v -143 h -153 z"
   id="path3" />
   <path
   class="fil0"
   d="m 12105,14273 c 0,69 -55,116 -145,116 h -151 v -235 h 147 c 90,0 149,40 149,117 z m 38,239 c 101,-55 149,-140 149,-240 0,-183 -126,-288 -332,-288 h -334 v 846 h 183 v -271 h 147 l 171,271 h 226 z m 933,-20 v -170 h -392 v -168 h 438 v -170 h -621 v 846 h 621 v -170 h -438 v -168 z m -5472,168 h -11 v -175 h 236 c 65,0 104,29 104,88 0,57 -41,87 -104,87 h -44 c -29,0 -152,0 -181,0 z m -11,-506 h 211 c 61,0 99,27 99,83 0,54 -40,83 -99,83 h -211 z m 530,419 c 0,-81 -38,-145 -108,-187 44,-35 69,-84 69,-151 0,-150 -101,-251 -270,-251 h -404 v 846 h 400 c 193,0 313,-92 313,-257 z m 572,-426 c 143,0 259,117 259,260 0,143 -116,260 -259,260 -144,0 -260,-117 -260,-260 0,-143 116,-260 260,-260 z m 0,698 c 242,0 438,-196 438,-438 0,-242 -196,-438 -438,-438 -243,0 -439,196 -439,438 0,242 196,438 439,438 z m 1151,-185 h -371 v -676 h -183 v 846 h 554 z m 671,0 h -371 v -676 h -183 v 846 h 554 z m 508,-513 c 143,0 260,117 260,260 0,143 -117,260 -260,260 -144,0 -260,-117 -260,-260 0,-143 116,-260 260,-260 z m 0,698 c 242,0 438,-196 438,-438 0,-242 -196,-438 -438,-438 -242,0 -439,196 -439,438 0,242 197,438 439,438 z"
   id="path4" />
   <path
   class="fil0"
   d="m 13770,12736 -173,294 c 0,0 -26,46 14,23 l 298,-176 c 8,-4 3,-12 0,-16 l -3,-3 v 0 0 l -123,-123 v 0 c -7,-7 -13,1 -13,1 z"
   id="path5" />
  </g>
 </g>
</svg>
