<?xml version="1.0" encoding="UTF-8" standalone="no"?>
<!-- Creator: CorelDRAW X7 -->

<svg
   xml:space="preserve"
   width="68.43mm"
   height="20.200001mm"
   version="1.1"
   style="clip-rule:evenodd;fill-rule:evenodd;image-rendering:optimizeQuality;shape-rendering:geometricPrecision;text-rendering:geometricPrecision"
   viewBox="0 0 6843.0002 2020.0001"
   id="svg1"
   xmlns="http://www.w3.org/2000/svg"
   xmlns:svg="http://www.w3.org/2000/svg">
 <defs
   id="defs1">
  <style
   type="text/css"
   id="style1">
   <![CDATA[
    .fil0 {fill:#4B4B4D}
   ]]>
  </style>
 </defs>
 <g
   id="Layer_x0020_1"
   transform="translate(-7374,-12960)">
  <metadata
   id="CorelCorpID_0Corel-Layer" />
  <path
   class="fil0"
   d="m 9428,14980 c 21,-8 90,-10 181,-47 105,-43 199,-108 276,-184 26,-25 87,-90 104,-127 h -171 l 25,-90 204,1 c 15,-26 34,-57 37,-87 l -219,1 18,-69 c 10,-29 -1,-11 14,-20 h 216 c 50,-168 -24,-354 -203,-406 -221,-65 -466,68 -618,210 -18,17 -87,92 -96,118 h 133 l -30,87 -160,1 c -13,12 -40,67 -42,86 h 188 l -28,88 -189,1 c -50,172 9,358 181,418 20,7 54,11 73,19 z m 2970,-1629 c -70,-22 -107,-46 -197,-44 -208,4 -352,160 -348,391 4,222 160,381 370,368 86,-6 120,-36 175,-69 v 56 h 230 v -1080 l -227,-1 z m -5024,-30 c 33,71 17,151 197,243 87,45 238,80 311,133 43,31 66,99 6,141 -87,61 -259,20 -352,-26 -51,-25 -112,-69 -140,-82 l -1,229 c 47,40 192,89 269,100 117,16 233,9 331,-29 223,-85 257,-333 147,-475 -123,-159 -405,-176 -476,-267 -60,-76 42,-145 205,-126 53,6 104,23 149,39 32,11 109,48 133,52 v -208 c -89,-59 -296,-82 -307,-85 h -129 c -42,19 -209,12 -304,163 -27,43 -22,67 -39,108 z m 1644,730 h 230 l 2,-462 c 5,-19 56,-73 73,-85 83,-61 171,-16 190,74 12,58 7,244 4,313 55,-13 114,-59 231,-70 1,-195 30,-370 -104,-464 -93,-67 -228,-67 -325,3 -19,15 -66,66 -72,68 l 1,-456 -231,1 z m 2412,-82 1,-142 c -77,34 -131,111 -305,100 -123,-8 -217,-105 -205,-200 h 522 c -2,-124 -16,-194 -75,-276 -158,-218 -559,-190 -663,93 -80,221 29,406 174,475 85,41 192,56 298,45 118,-13 176,-44 253,-95 z m 2044,2 v -144 c -92,55 -156,111 -305,100 -111,-8 -209,-85 -205,-199 l 523,-1 c -2,-202 -79,-366 -291,-410 -352,-74 -555,262 -444,524 34,82 93,141 170,178 122,60 302,64 437,13 47,-18 78,-40 115,-61 z m -3387,-549 v -101 l -232,1 1,495 c 72,19 142,27 204,81 l 27,21 v -328 c 4,-27 89,-157 196,-124 92,29 78,149 78,252 0,109 3,223 -1,332 h 231 c -2,-115 0,-229 0,-343 0,-113 9,-213 -47,-294 -78,-110 -249,-140 -367,-68 -42,26 -60,50 -90,76 z m -1163,596 v -166 c -86,20 -168,74 -280,39 -195,-60 -190,-338 -11,-399 134,-46 231,22 279,34 l 1,-171 c -142,-52 -313,-72 -452,-3 -280,140 -280,547 6,674 65,29 151,43 233,40 90,-3 148,-28 224,-48 z m 5293,-633 v -14 c -36,-15 -59,-44 -108,-58 -119,-33 -195,65 -246,154 l -33,57 -1,-203 h -229 l -1,727 c 25,7 203,6 231,1 -3,-71 -1,-146 -1,-218 0,-103 -1,-107 41,-186 24,-47 59,-99 109,-115 78,-26 137,34 173,44 z m -4978,1244 -38,140 c 196,-4 324,26 445,-87 55,-51 60,-96 83,-184 l 53,-199 c 19,-43 100,-14 164,-23 l 29,-129 c -173,0 -374,-33 -471,136 -60,106 -55,324 -112,342 -26,8 -117,1 -153,4 z m 2295,-575 225,-1 2,-729 -231,-2 c 3,120 1,243 1,365 0,64 -8,325 3,367 z m -1173,205 v 550 h 364 v -83 h -274 v -194 l 257,-1 v -79 c -85,-3 -181,1 -257,-4 v -186 l 266,-1 v -83 h -356 z m 2037,-406 v -349 c -64,-34 -143,-68 -222,-18 -59,37 -90,107 -90,206 1,99 36,166 96,200 91,52 165,0 216,-39 z m -806,915 -1,-80 c -48,28 -100,58 -176,47 -58,-9 -104,-60 -105,-122 h 288 c -4,-113 -35,-205 -137,-224 -254,-47 -304,289 -148,394 90,61 198,32 279,-15 z m 2421,25 v -79 c -54,5 -91,45 -170,15 -116,-45 -98,-222 -3,-259 75,-29 114,11 163,31 v -88 c -76,-27 -153,-47 -230,0 -56,35 -93,96 -95,188 -5,179 166,263 335,192 z m -1872,-1 v -78 c -20,2 -50,17 -78,22 -201,36 -218,-217 -94,-266 77,-30 115,15 163,31 v -88 c -42,-13 -59,-26 -113,-27 -125,-3 -209,74 -212,215 -4,179 169,265 334,191 z m 208,-324 h 71 c 2,71 -11,229 15,284 31,65 143,86 217,38 6,-17 4,-52 3,-77 -16,5 -151,84 -151,-43 l 1,-202 h 129 v -75 h -130 v -84 c -16,11 -148,132 -155,159 z m -1415,341 h 82 v -631 h -82 z m 2013,-323 v -93 h -82 l -1,416 h 82 c 5,-69 -9,-214 9,-267 11,-32 33,-63 66,-73 40,-13 81,14 98,35 9,-6 6,-3 14,-14 6,-8 8,-13 12,-20 10,-16 16,-22 21,-42 -32,-15 -72,-64 -134,-34 -49,24 -54,56 -85,92 z m -1284,-1526 c -49,27 -97,30 -136,112 -34,73 1,145 80,144 96,-2 190,-109 168,-193 -11,-41 -36,-45 -68,-63 z m -738,645 h 313 c -6,-211 -305,-215 -313,0 z m 2043,-1 314,1 c -10,-208 -299,-219 -314,-1 z m 414,1205 h 81 l 2,-416 h -82 z m -2072,-252 206,1 c -3,-61 -38,-103 -101,-101 -64,1 -94,44 -105,100 z m 2109,-327 c -60,22 -57,103 7,83 57,-18 61,-109 -7,-83 z"
   id="path1" />
 </g>
</svg>
