<?xml version="1.0" encoding="UTF-8"?>
<!DOCTYPE svg PUBLIC "-//W3C//DTD SVG 1.1//EN" "http://www.w3.org/Graphics/SVG/1.1/DTD/svg11.dtd">
<!-- Creator: CorelDRAW X7 -->
<svg xmlns="http://www.w3.org/2000/svg" xml:space="preserve" width="69.1134mm" height="20.8026mm" version="1.1" style="shape-rendering:geometricPrecision; text-rendering:geometricPrecision; image-rendering:optimizeQuality; fill-rule:evenodd; clip-rule:evenodd"
viewBox="0 0 6911 2080"
 xmlns:xlink="http://www.w3.org/1999/xlink"
 xmlns:svg="http://www.w3.org/2000/svg">
 <defs>
  <style type="text/css">
   <![CDATA[
    .fil0 {fill:#4B4B4D;fill-rule:nonzero}
   ]]>
  </style>
 </defs>
 <g id="Layer_x0020_1">
  <metadata id="CorelCorpID_0Corel-Layer"/>
  <g id="_1334554600">
   <path id="path1" class="fil0" d="M5609 87c136,-120 364,-116 496,9 50,47 81,110 118,167 230,370 458,741 689,1110 -110,-1 -219,-1 -329,-1 -280,-446 -557,-894 -836,-1341 109,448 222,894 331,1341 -431,0 -861,0 -1292,0 227,-362 454,-725 681,-1087 44,-68 79,-144 142,-198z"/>
   <path id="path2" class="fil0" d="M3698 1693c63,-12 134,-1 185,41 90,75 87,238 -10,308 -75,52 -183,51 -257,-4 -91,-71 -94,-227 -7,-302 26,-22 57,-36 89,-43zm17 76l0 0c-81,18 -106,127 -60,189 35,50 112,59 160,25 63,-45 63,-152 1,-197 -29,-21 -67,-26 -101,-17zm-2045 -1407c65,-193 256,-334 460,-338 213,-1 425,0 638,-1 105,-1 213,34 289,109 170,162 161,470 -17,622 -75,65 -175,96 -273,94 -282,-1 -564,1 -845,0 -7,123 95,241 219,243 328,1 656,0 984,1 0,93 0,187 0,280 -330,0 -660,1 -991,0 -213,-3 -410,-159 -470,-363 -33,-100 -19,-207 -22,-310 3,-113 -12,-229 28,-337zm317 9l0 0c-52,51 -71,126 -65,197 289,0 578,1 866,0 40,0 80,-21 96,-58 22,-49 22,-110 -7,-156 -20,-34 -61,-51 -100,-50 -209,-1 -418,-1 -626,-1 -61,-1 -121,25 -164,68zm-1819 -217c92,-84 215,-130 339,-131 324,0 648,0 972,0 0,94 0,187 0,281 -317,-1 -634,0 -951,-1 -125,-12 -248,95 -246,222 1,120 0,240 1,360 6,113 111,209 225,207 322,0 645,0 968,-1 -1,94 -1,188 0,281 -296,0 -591,0 -886,0 -62,0 -124,3 -184,-10 -141,-29 -267,-120 -338,-245 -40,-71 -62,-152 -68,-233 0,-113 0,-226 0,-339 -2,-146 59,-293 168,-391zm3058 -131c109,2 217,-2 326,1 210,352 424,703 635,1054 16,31 54,49 88,38 32,-10 45,-44 63,-70 213,-341 425,-683 639,-1023 109,1 217,0 326,0 -228,364 -455,728 -682,1092 -52,77 -91,167 -170,219 -120,85 -293,82 -409,-9 -50,-36 -84,-89 -114,-142 -234,-386 -468,-774 -702,-1160zm990 1692c80,-42 188,-37 258,22 -20,20 -39,41 -57,62 -47,-42 -127,-48 -173,-3 -53,52 -45,153 20,191 41,25 91,17 134,2 5,-21 4,-43 2,-64 -22,1 -44,1 -66,1 1,-26 1,-52 1,-77 48,0 97,0 146,0 0,65 0,130 0,196 -85,39 -193,54 -275,2 -114,-72 -109,-268 10,-332zm803 2c62,-43 153,-37 212,10 -19,21 -38,41 -57,61 -29,-23 -74,-34 -105,-8 -16,13 -12,42 7,51 36,22 82,22 117,48 58,41 45,139 -12,175 -68,43 -161,31 -221,-20 20,-22 39,-44 58,-66 27,31 74,47 112,25 21,-10 24,-40 5,-54 -43,-30 -103,-27 -140,-67 -39,-45 -24,-121 24,-155zm1209 7c74,-49 188,-52 249,19 -21,17 -42,34 -63,52 -33,-34 -88,-40 -127,-14 -72,46 -69,171 7,211 41,23 96,10 123,-28 23,17 46,34 69,51 -77,101 -251,79 -311,-28 -47,-85 -31,-207 53,-263zm462 2c61,-54 159,-47 222,1 -20,20 -39,41 -57,62 -27,-24 -70,-33 -101,-12 -19,12 -19,41 0,53 44,26 104,24 138,66 41,52 16,136 -41,164 -67,36 -153,22 -210,-26 18,-22 39,-44 58,-65 28,31 78,47 114,22 21,-12 19,-43 -1,-55 -42,-25 -97,-26 -134,-61 -39,-41 -29,-113 12,-149zm-3544 -28c28,0 56,0 83,0 0,98 1,196 0,295 51,4 102,1 152,1 0,26 0,51 0,77 -78,-1 -156,0 -235,-1 0,-124 1,-248 0,-372zm1546 0c27,0 55,0 82,0 0,124 0,248 0,372 -27,0 -55,0 -83,0 1,-124 0,-248 1,-372zm704 0c99,0 197,0 296,0 0,24 0,49 0,73 -36,0 -71,0 -106,0 -1,100 -1,199 0,299 -28,0 -56,0 -83,0 0,-100 0,-199 0,-299 -36,0 -71,0 -107,0 0,-24 0,-49 0,-73zm476 0c28,0 55,0 83,0 0,124 0,248 0,372 -28,0 -55,0 -83,0 0,-124 0,-248 0,-372z"/>
  </g>
 </g>
</svg>
