<?xml version="1.0" encoding="UTF-8"?>
<!DOCTYPE svg PUBLIC "-//W3C//DTD SVG 1.1//EN" "http://www.w3.org/Graphics/SVG/1.1/DTD/svg11.dtd">
<!-- Creator: CorelDRAW X7 -->
<svg xmlns="http://www.w3.org/2000/svg" xml:space="preserve" width="215.9mm" height="279.4mm" version="1.1" style="shape-rendering:geometricPrecision; text-rendering:geometricPrecision; image-rendering:optimizeQuality; fill-rule:evenodd; clip-rule:evenodd"
viewBox="0 0 21590 27940"
 xmlns:xlink="http://www.w3.org/1999/xlink">
 <defs>
  <style type="text/css">
   <![CDATA[
    .fil0 {fill:none}
    .fil1 {fill:#373435;fill-rule:nonzero}
   ]]>
  </style>
 </defs>
 <g id="Layer_x0020_1">
  <metadata id="CorelCorpID_0Corel-Layer"/>
  <rect class="fil0" x="13990" y="13666" width="7359" height="7359"/>
  <rect class="fil0" x="22894" y="13666" width="7359" height="7359"/>
  <rect class="fil0" x="31798" y="13666" width="7359" height="7359"/>
  <g id="_327588872">
   <polygon class="fil1" points="8698,15626 8617,15626 8623,15596 8817,15596 8811,15626 8730,15626 8679,15871 8648,15871 "/>
   <path class="fil1" d="M8867 15667c49,0 80,36 80,87 0,9 -2,22 -3,27l-151 0c0,2 0,7 0,10 0,31 21,59 62,59 18,0 39,-6 54,-19l9 21c-16,15 -41,24 -65,24 -56,0 -90,-35 -90,-88 0,-66 46,-121 104,-121zm54 84c0,-33 -20,-59 -56,-59 -34,0 -63,31 -69,67l124 0c1,-2 1,-6 1,-8z"/>
   <path class="fil1" d="M9081 15667c34,0 57,14 70,37l-22 18c-10,-19 -28,-28 -47,-28 -46,0 -75,45 -75,92 0,41 25,62 58,62 19,0 35,-10 46,-23l17 20c-16,18 -37,31 -66,31 -50,0 -85,-33 -85,-89 0,-66 46,-120 104,-120z"/>
   <path class="fil1" d="M9309 15740c1,-4 2,-10 2,-13 0,-24 -16,-33 -38,-33 -21,0 -43,16 -57,32l-30 145 -29 0 57 -275 28 0 -21 105c16,-17 39,-34 66,-34 32,0 55,17 55,49 0,4 -1,13 -3,17l-28 138 -28 0 26 -131z"/>
   <path class="fil1" d="M9519 15740c1,-4 2,-9 2,-13 0,-24 -16,-33 -36,-33 -24,0 -45,16 -59,32l-30 145 -29 0 41 -199 29 0 -6 29c16,-17 39,-34 65,-34 33,0 55,17 55,49 0,4 -1,13 -2,17l-28 138 -29 0 27 -131z"/>
   <path class="fil1" d="M9687 15667c52,0 84,36 84,88 0,63 -43,121 -103,121 -53,0 -84,-36 -84,-88 0,-63 43,-121 103,-121zm-1 27c-42,0 -72,45 -72,92 0,38 20,62 55,62 42,0 72,-45 72,-92 0,-37 -20,-62 -55,-62z"/>
   <g>
    <path class="fil1" d="M8127 14611l279 0 0 786 204 0 0 -786 276 0 0 -205 -759 0 0 205zm1405 442c0,0 207,-43 207,-312 0,-270 -240,-335 -306,-335l-467 0 0 991 199 0 0 -316 137 0 259 316 256 0 -285 -344zm-132 -177l-230 0 0 -262 249 0c0,0 117,8 117,136 0,128 -136,126 -136,126zm486 -470l0 991 695 0 0 -214 -506 0 0 -179 483 0 0 -201 -483 0 0 -189 506 0 0 -208 -695 0zm819 0l0 991 206 0 0 -607 437 607 129 0 0 -991 -198 0 0 558 -408 -558 -166 0zm1241 0l-365 0 0 991 413 0c0,0 411,-16 411,-514 0,-498 -459,-477 -459,-477zm25 784l-186 0 0 -573 192 0c91,0 227,59 227,308 0,249 -233,265 -233,265zm457 -30l168 -97c0,0 46,158 219,158 172,0 207,-61 207,-121 0,-61 -42,-95 -153,-118 -110,-23 -283,-4 -367,-167 -90,-172 2,-409 254,-436 241,-27 399,74 445,213l-159 91c0,0 -90,-177 -320,-89 0,0 -69,36 -45,110 23,75 223,72 267,85 45,14 256,52 277,254 21,202 -94,286 -94,286 0,0 -82,84 -253,91 -172,6 -362,-23 -446,-260zm945 -786c-49,0 -90,43 -90,97 0,53 41,96 90,96 50,0 90,-43 90,-96 0,-54 -40,-97 -90,-97zm0 180c-43,0 -77,-37 -77,-83 0,-46 34,-83 77,-83 43,0 77,37 77,83 0,46 -34,83 -77,83zm16 -72c0,0 24,-4 24,-34 0,-30 -29,-31 -29,-31l-44 0 0 108 15 0 0 -43 13 0 28 43 20 0 -27 -43zm-34 -16l0 -36c0,0 20,0 26,0 6,0 16,5 16,18 0,13 -10,18 -10,18l-32 0z"/>
    <g>
     <polygon class="fil1" points="11146,12366 11461,11988 11689,11988 "/>
     <polygon class="fil1" points="11146,12366 11374,12366 11689,11988 "/>
     <polygon class="fil1" points="11282,12475 11053,12475 10461,13189 "/>
     <polygon class="fil1" points="10461,13189 10689,13189 11282,12475 "/>
     <polygon class="fil1" points="10587,12766 10357,12766 10007,13189 "/>
     <polygon class="fil1" points="10007,13189 10231,13189 10587,12766 "/>
     <polygon class="fil1" points="11390,12618 10917,13189 11617,12618 "/>
     <polygon class="fil1" points="11617,12618 10917,13189 11146,13189 "/>
     <polygon class="fil1" points="10461,13189 10231,13189 9901,13587 "/>
     <polygon class="fil1" points="10917,13189 10689,13189 10034,13975 "/>
     <polygon class="fil1" points="11367,13189 11146,13189 10781,13627 "/>
     <polygon class="fil1" points="9902,13587 10461,13189 10129,13587 "/>
     <polygon class="fil1" points="10917,13189 10034,13975 10267,13975 "/>
     <polygon class="fil1" points="11367,13189 10781,13627 11012,13627 "/>
    </g>
    <path class="fil1" d="M9988 15667c53,0 85,36 85,88 0,63 -44,121 -103,121 -53,0 -85,-36 -85,-88 0,-63 44,-121 103,-121zm0 27c-43,0 -72,45 -72,92 0,38 20,62 55,62 42,0 72,-45 72,-92 0,-37 -21,-62 -55,-62z"/>
   </g>
   <path class="fil1" d="M10104 15897c13,20 36,29 64,29 28,0 53,-15 62,-61l6 -26c-15,21 -37,34 -63,34 -39,0 -71,-26 -71,-82 0,-63 37,-124 97,-124 25,0 51,15 65,36l6 -31 29 0 -40 193c-14,66 -51,87 -91,87 -35,0 -62,-8 -82,-34l18 -21zm155 -170c-11,-20 -33,-33 -58,-33 -42,0 -69,46 -69,92 0,37 21,59 52,59 22,0 44,-14 57,-31l18 -87z"/>
   <polygon class="fil1" points="10711,15626 10630,15626 10636,15596 10830,15596 10824,15626 10743,15626 10692,15871 10661,15871 "/>
   <path class="fil1" d="M10879 15667c53,0 85,36 85,88 0,63 -44,121 -103,121 -53,0 -85,-36 -85,-88 0,-63 43,-121 103,-121zm-1 27c-42,0 -72,45 -72,92 0,38 21,62 55,62 43,0 72,-45 72,-92 0,-37 -20,-62 -55,-62z"/>
   <polygon class="fil1" points="11198,15626 11117,15626 11123,15596 11317,15596 11311,15626 11229,15626 11179,15871 11147,15871 "/>
   <path class="fil1" d="M11308 15672l29 0 -7 30c19,-23 37,-34 69,-34l-6 31c-3,-1 -8,-1 -15,-1 -21,0 -42,15 -54,32l-28 141 -29 0 41 -199z"/>
   <path class="fil1" d="M11762 15740c0,-4 2,-9 2,-13 0,-24 -16,-33 -36,-33 -24,0 -45,16 -59,32l-30 145 -29 0 41 -199 29 0 -6 29c16,-17 39,-34 65,-34 33,0 55,17 55,49 0,4 -1,13 -2,17l-28 138 -29 0 27 -131z"/>
   <path class="fil1" d="M11830 15820c10,16 34,31 62,31 26,0 43,-17 43,-35 0,-17 -20,-25 -41,-35 -27,-11 -57,-23 -57,-54 0,-32 25,-60 70,-60 32,0 59,14 71,32l-17 21c-8,-15 -31,-28 -55,-28 -25,0 -40,13 -40,30 0,16 19,24 39,33 27,10 58,23 58,56 0,34 -26,65 -72,65 -34,0 -62,-12 -79,-35l18 -21z"/>
   <path class="fil1" d="M12107 15667c34,0 57,14 69,37l-21 18c-10,-19 -28,-28 -47,-28 -47,0 -75,45 -75,92 0,41 25,62 58,62 19,0 35,-10 46,-23l17 20c-16,18 -37,31 -66,31 -50,0 -85,-33 -85,-89 0,-66 45,-120 104,-120z"/>
   <path class="fil1" d="M12295 15667c49,0 80,36 80,87 0,9 -2,22 -4,27l-150 0c0,2 -1,7 -1,10 0,31 21,59 63,59 18,0 38,-6 53,-19l10 21c-17,15 -41,24 -65,24 -56,0 -90,-35 -90,-88 0,-66 45,-121 104,-121zm53 84c0,-33 -19,-59 -56,-59 -34,0 -63,31 -68,67l124 0c0,-2 0,-6 0,-8z"/>
   <path class="fil1" d="M12549 15740c1,-4 2,-9 2,-13 0,-24 -16,-33 -36,-33 -24,0 -45,16 -59,32l-30 145 -29 0 41 -199 29 0 -6 29c16,-17 39,-34 65,-34 33,0 56,17 56,49 0,4 -2,13 -3,17l-28 138 -29 0 27 -131z"/>
   <path class="fil1" d="M12797 15596l29 0 -57 275 -28 0 5 -28c-15,20 -36,33 -61,33 -42,0 -71,-30 -71,-82 0,-65 37,-127 97,-127 28,0 52,14 64,36l22 -107zm-101 252c23,0 44,-15 56,-34l18 -87c-9,-18 -29,-33 -55,-33 -43,0 -71,46 -71,94 0,37 21,60 52,60z"/>
   <path class="fil1" d="M11520 15672c-65,-4 -78,25 -78,25l9 22c0,0 53,-44 93,-9 6,6 9,15 8,24l-6 42c0,0 -24,-35 -79,-26 -48,7 -62,58 -51,91 21,65 109,23 114,8l-4 22 28 0 27 -138c0,0 11,-56 -61,-61zm15 159c0,0 -22,27 -56,23 -18,-3 -33,-15 -38,-32 -4,-12 -3,-26 11,-40 31,-30 71,-9 89,9l-6 40z"/>
   <path class="fil1" d="M9873 15595l-29 0 -44 224c0,0 -15,78 64,44l-2 -25c0,0 -46,19 -34,-28 11,-47 45,-215 45,-215z"/>
   <path class="fil1" d="M10342 15671l28 0 -27 135c0,0 -2,64 75,23 0,0 22,-10 27,-46l21 -112 27 0 -37 187c0,0 -10,75 -71,90l-41 0c0,0 -36,-2 -59,-35l18 -20c0,0 15,29 46,28l27 0c0,0 45,0 55,-83 0,0 -33,35 -70,30 0,0 -54,-2 -46,-54 8,-52 27,-143 27,-143z"/>
  </g>
 </g>
</svg>
