<?xml version="1.0" encoding="UTF-8"?>
<!DOCTYPE svg PUBLIC "-//W3C//DTD SVG 1.1//EN" "http://www.w3.org/Graphics/SVG/1.1/DTD/svg11.dtd">
<!-- Creator: CorelDRAW X7 -->
<svg xmlns="http://www.w3.org/2000/svg" xml:space="preserve" width="85.3186mm" height="27.051mm" version="1.1" style="shape-rendering:geometricPrecision; text-rendering:geometricPrecision; image-rendering:optimizeQuality; fill-rule:evenodd; clip-rule:evenodd"
viewBox="0 0 8532 2705"
 xmlns:xlink="http://www.w3.org/1999/xlink">
 <defs>
  <style type="text/css">
   <![CDATA[
    .fil0 {fill:#373435;fill-rule:nonzero}
   ]]>
  </style>
 </defs>
 <g id="Layer_x0020_1">
  <metadata id="CorelCorpID_0Corel-Layer"/>
  <path id="path3" class="fil0" d="M2745 131c112,-84 251,-131 391,-130 1152,0 2305,0 3457,1 -78,195 -158,390 -236,585 -1292,0 -2585,0 -3877,0 23,-180 120,-349 265,-456zm2026 2001c202,-472 403,-945 606,-1418 307,1 613,0 919,0 -202,473 -404,946 -607,1419 -306,-1 -612,0 -918,-1zm-2282 -1332c533,0 1066,-1 1599,0 183,-2 365,80 485,220 133,149 185,364 144,560 -58,308 -346,552 -658,552 -707,0 -1413,1 -2120,0 78,-183 158,-365 236,-547 536,0 1072,0 1608,0 56,4 112,-29 132,-82 33,-78 -33,-173 -117,-171 -234,-2 -469,2 -703,-1 -290,-15 -550,-245 -606,-531zm-2402 1488c64,-29 138,-12 198,18 -14,28 -28,55 -42,83 -25,-16 -54,-33 -85,-25 -20,3 -37,24 -28,44 12,21 38,25 59,32 39,12 81,30 100,69 28,60 8,144 -54,175 -75,38 -168,21 -235,-25 15,-29 30,-57 45,-86 33,27 76,51 119,37 27,-8 36,-48 11,-63 -45,-28 -108,-28 -140,-74 -39,-61 -15,-155 52,-185zm2785 165c13,-88 86,-161 173,-176 46,-9 93,0 136,16 1,43 0,85 1,128 -30,-35 -78,-54 -123,-40 -55,14 -88,76 -76,130 8,53 60,95 114,90 33,-1 61,-21 85,-42 -1,42 0,83 0,125 -60,24 -130,29 -189,0 -86,-39 -138,-138 -121,-231zm-2498 -168c35,0 71,0 106,0 1,81 0,162 1,243 0,29 7,65 37,77 28,10 65,10 87,-14 18,-22 18,-52 18,-79 0,-76 0,-152 0,-227 35,0 71,0 106,0 0,81 0,163 0,244 -1,49 -11,103 -49,137 -40,34 -95,40 -146,38 -45,-2 -94,-15 -124,-51 -30,-37 -36,-87 -36,-133 -1,-78 0,-157 0,-235zm447 0c62,0 125,-1 188,1 49,1 99,31 114,80 17,56 11,128 -39,165 -45,34 -104,26 -157,27 0,45 0,90 0,135 -36,0 -71,0 -106,0 0,-136 0,-272 0,-408zm106 86l0 0c0,33 0,67 0,101 20,0 40,1 59,-3 43,-8 46,-78 7,-93 -21,-8 -44,-5 -66,-5zm267 -86c58,0 117,-1 176,0 45,1 92,25 111,67 19,44 18,100 -13,138 -15,20 -40,28 -63,37 43,55 85,111 128,166 -45,0 -89,0 -133,0 -33,-52 -67,-104 -100,-156 -1,52 0,104 0,156 -36,0 -71,0 -107,0 0,-136 0,-272 1,-408zm106 81l0 0c0,34 -1,68 0,102 22,-2 47,1 66,-13 26,-18 24,-64 -4,-79 -19,-11 -42,-8 -62,-10zm283 -81c77,0 155,0 232,0 0,30 0,60 0,90 -42,0 -84,0 -125,0 -1,22 -1,45 -1,68 40,0 79,0 119,0 0,30 0,60 0,90 -40,0 -79,0 -119,0 0,23 0,47 0,70 42,0 84,0 126,0 0,30 0,60 0,90 -77,0 -155,0 -232,0 0,-136 0,-272 0,-408zm365 0c35,0 70,0 105,0 27,71 54,142 81,213 31,-69 54,-142 82,-213 35,0 70,0 105,0 23,136 46,272 69,408 -35,0 -70,0 -106,0 -11,-78 -23,-156 -35,-234 -32,78 -64,155 -95,233 -14,1 -29,1 -43,1 -32,-75 -55,-154 -92,-227 -12,76 -22,151 -34,227 -35,0 -71,0 -106,0 23,-136 46,-272 69,-408zm631 0c39,0 77,0 116,0 52,136 104,272 155,408 -37,0 -75,0 -113,0 -8,-24 -16,-47 -24,-71 -51,0 -101,-1 -152,1 -7,23 -15,47 -24,70 -37,0 -75,0 -113,0 52,-136 104,-272 155,-408zm11 256l0 0c32,0 63,0 94,0 -15,-45 -31,-89 -47,-134 -16,45 -31,89 -47,134zm614 -256c43,0 85,0 127,0 25,37 50,74 76,111 25,-37 49,-75 76,-112 42,1 84,1 126,1 -47,66 -93,132 -140,197 -6,9 -11,19 -10,30 0,60 1,121 0,181 -35,0 -71,0 -106,0 0,-65 0,-131 0,-196 -50,-71 -99,-141 -149,-212zm3784 -2c77,-21 166,-8 227,45 82,69 95,202 32,287 -81,113 -269,120 -360,15 -60,-67 -69,-174 -22,-251 26,-47 72,-81 123,-96zm34 100l0 0c-50,16 -84,71 -74,124 7,57 65,100 122,94 63,-3 116,-66 104,-128 -7,-70 -88,-115 -152,-90zm-3278 -98c35,-1 70,-1 106,0 0,136 0,272 0,408 -36,0 -71,0 -106,0 0,-136 -1,-272 0,-408zm197 0c36,-1 71,-1 106,-1 66,83 130,167 196,249 0,-83 -1,-166 0,-248 35,-1 70,-1 105,0 1,136 0,272 0,408 -35,0 -70,0 -105,0 -65,-83 -130,-166 -196,-249 0,83 0,166 0,249 -35,0 -70,0 -106,0 0,-136 0,-272 0,-408zm461 0c93,0 187,-1 280,0 0,30 0,60 0,90 -29,0 -58,0 -86,0 -2,106 -1,212 -1,318 -36,0 -71,0 -106,0 0,-106 0,-212 0,-318 -29,0 -58,0 -87,0 0,-30 0,-60 0,-90zm333 0c77,0 155,-1 232,0 0,30 0,60 0,90 -42,0 -84,0 -126,0 0,23 0,45 0,68 40,0 79,0 119,0 0,30 0,60 0,90 -40,0 -79,0 -119,0 0,23 0,47 0,70 42,0 84,0 126,0 0,30 0,60 0,90 -77,0 -155,0 -232,0 0,-136 0,-272 0,-408zm315 0c55,0 111,-1 166,0 34,0 70,9 95,33 42,38 48,105 25,155 -15,29 -45,44 -75,54 43,55 85,111 128,166 -44,-2 -90,4 -133,-3 -35,-50 -66,-102 -100,-153 -1,52 0,104 0,156 -36,0 -71,0 -106,0 0,-136 -1,-272 0,-408zm106 81l0 0c0,34 0,68 0,102 21,-2 43,1 62,-10 29,-16 30,-65 1,-81 -19,-12 -42,-9 -63,-11zm283 -81c36,-1 72,-1 107,1 64,83 130,165 194,247 0,-82 1,-165 0,-248 35,-1 71,-1 106,0 1,136 0,272 0,408 -35,0 -70,0 -106,0 -65,-83 -130,-166 -195,-249 0,83 0,166 0,249 -35,0 -71,0 -106,0 0,-136 0,-272 0,-408zm616 0c38,-1 77,-1 116,0 52,136 103,272 155,408 -38,0 -76,0 -113,0 -9,-24 -17,-47 -25,-71 -50,0 -100,0 -150,0 -9,24 -17,47 -25,71 -38,0 -75,0 -113,0 51,-136 103,-272 155,-408zm57 125l0 0c-16,43 -31,87 -46,131 31,0 63,1 94,1 -16,-44 -28,-89 -48,-132zm210 -125c94,-2 187,0 281,0 0,30 0,60 0,90 -29,0 -58,0 -87,0 0,106 0,212 0,318 -36,0 -71,0 -106,0 0,-106 0,-212 0,-318 -30,0 -59,0 -88,0 0,-30 0,-60 0,-90zm334 0c35,-1 70,-1 106,0 0,136 0,272 0,408 -35,0 -71,0 -106,0 0,-136 0,-272 0,-408zm704 0c34,0 69,-2 103,0 9,5 14,14 20,21 59,76 119,152 178,227 0,-83 0,-166 0,-248 36,-1 71,-1 106,0 0,136 0,272 0,408 -35,0 -70,0 -106,0 -65,-83 -130,-166 -195,-249 0,83 0,166 0,249 -36,0 -71,0 -106,0 0,-136 0,-272 0,-408zm615 0c39,-1 78,-1 117,0 51,136 103,272 155,408 -38,0 -76,0 -114,0 -8,-24 -16,-47 -24,-71 -50,0 -100,0 -150,0 -9,23 -17,47 -25,71 -38,0 -76,0 -114,0 52,-136 104,-272 155,-408zm12 256l0 0c31,0 62,1 94,0 -16,-45 -32,-90 -47,-135 -16,45 -32,90 -47,135zm312 -256c36,-1 71,-1 107,0 0,106 -1,212 0,318 42,0 84,0 126,0 0,30 0,60 0,90 -77,0 -155,0 -233,0 0,-136 0,-272 0,-408z"/>
 </g>
</svg>
