<?xml version="1.0" encoding="UTF-8"?>
<!DOCTYPE svg PUBLIC "-//W3C//DTD SVG 1.1//EN" "http://www.w3.org/Graphics/SVG/1.1/DTD/svg11.dtd">
<!-- Creator: CorelDRAW X7 -->
<svg xmlns="http://www.w3.org/2000/svg" xml:space="preserve" width="215.9mm" height="279.4mm" version="1.1" style="shape-rendering:geometricPrecision; text-rendering:geometricPrecision; image-rendering:optimizeQuality; fill-rule:evenodd; clip-rule:evenodd"
viewBox="0 0 21590 27940"
 xmlns:xlink="http://www.w3.org/1999/xlink">
 <defs>
  <style type="text/css">
   <![CDATA[
    .fil1 {fill:#4B4B4D}
    .fil0 {fill:#4B4B4D;fill-rule:nonzero}
   ]]>
  </style>
 </defs>
 <g id="Layer_x0020_1">
  <metadata id="CorelCorpID_0Corel-Layer"/>
  <g id="_327567104">
   <path class="fil0" d="M12988 13795c15,-23 14,-49 -3,-69 -18,-19 -47,-24 -70,-10 -16,9 -28,22 -39,35 -41,52 -81,103 -122,154 -12,15 -24,31 -36,46 -2,4 -4,12 18,12l65 0c49,-42 97,-85 146,-127 15,-13 30,-25 41,-41z"/>
   <path class="fil1" d="M13239 13316c246,200 461,438 628,707 147,238 258,503 312,778 3,18 -2,35 -12,37l0 0c-10,3 -27,-30 -27,-30l0 0c-94,-248 -228,-482 -385,-694 -181,-245 -395,-465 -631,-656 -236,-191 -496,-355 -772,-481 -227,-104 -469,-184 -716,-226l0 0c0,0 -24,-14 -25,-24 -1,-11 8,-23 46,-23 259,5 517,57 760,145 298,107 576,268 822,467z"/>
   <path class="fil0" d="M11018 15165c-55,0 -99,-44 -99,-99 0,-54 44,-99 99,-99 55,0 99,45 99,99 0,55 -44,99 -99,99zm0 -268c-94,0 -170,76 -170,169 0,94 76,170 170,170 94,0 169,-76 169,-170 0,-93 -75,-169 -169,-169zm-358 7l-71 0 0 325 232 0 0 -66 -161 0 0 -259zm964 325l71 0 0 -325 -71 0 0 325zm436 -260l99 0 0 260 71 0 0 -260 100 0 0 -65 -270 0 0 65zm320 260l70 0 0 -325 -70 0 0 325zm381 -90c-19,18 -48,30 -75,30 -75,0 -102,-52 -103,-101 0,-29 11,-56 29,-75 18,-19 43,-28 74,-28 28,0 53,10 71,28l4 4 48 -46 -4 -4c-33,-33 -74,-50 -119,-50 -51,0 -94,16 -124,47 -31,31 -49,77 -48,124 0,78 45,168 172,168 48,0 91,-17 123,-48l4 -4 -48 -50 -4 5zm227 -111c-39,-5 -65,-12 -65,-33 0,-22 23,-36 59,-36 31,0 56,14 67,28l53 -37c-27,-33 -63,-53 -121,-53 -64,1 -128,30 -128,96 0,74 65,92 129,99 60,6 67,26 67,40 0,37 -51,40 -66,40 -40,0 -71,-17 -83,-45l-1 -2 -57 35c22,51 68,76 140,76 66,0 140,-27 140,-104 0,-76 -66,-96 -134,-104zm-1090 0c-39,-5 -65,-12 -65,-33 0,-22 23,-36 60,-36 30,0 55,14 67,28l52 -37c-27,-33 -63,-53 -121,-53 -64,1 -127,30 -127,96 0,74 64,92 128,99 60,6 67,26 67,40 0,37 -50,40 -66,40 -40,0 -71,-17 -83,-45l-1 -2 -57 35c23,51 68,76 140,76 67,0 140,-27 140,-104 0,-76 -65,-96 -134,-104zm-501 70l82 0 0 44c-16,16 -40,25 -67,25 -77,0 -105,-57 -105,-96 0,-64 43,-107 105,-107 28,0 59,11 78,29l1 1 46 -47 0 -1c-34,-31 -78,-49 -125,-49 -122,0 -176,88 -176,174 0,63 46,165 176,165 55,0 101,-19 137,-58l1 -2 0 -143 -153 0 0 65z"/>
   <path class="fil0" d="M12105 14273c0,69 -55,116 -145,116l-151 0 0 -235 147 0c90,0 149,40 149,117l0 2zm38 239c101,-55 149,-140 149,-240 0,-183 -126,-288 -332,-288l-334 0 0 846 183 0 0 -271 147 0 171 271 226 0 -210 -318zm933 -20l0 -170 -392 0 0 -168 438 0 0 -170 -621 0 0 846 621 0 0 -170 -438 0 0 -168 392 0zm-5472 168l-11 0 0 -175 236 0c65,0 104,29 104,88 0,57 -41,87 -104,87l-44 0c-29,0 -152,0 -181,0zm-11 -506l211 0c61,0 99,27 99,83 0,54 -40,83 -99,83l-211 0 0 -166zm530 419c0,-81 -38,-145 -108,-187 44,-35 69,-84 69,-151 0,-150 -101,-251 -270,-251l-404 0 0 846 400 0c193,0 313,-92 313,-257zm572 -426c143,0 259,117 259,260 0,143 -116,260 -259,260 -144,0 -260,-117 -260,-260 0,-143 116,-260 260,-260zm0 698c242,0 438,-196 438,-438 0,-242 -196,-438 -438,-438 -243,0 -439,196 -439,438 0,242 196,438 439,438zm1151 -185l-371 0 0 -676 -183 0 0 846 554 0 0 -170zm671 0l-371 0 0 -676 -183 0 0 846 554 0 0 -170zm508 -513c143,0 260,117 260,260 0,143 -117,260 -260,260 -144,0 -260,-117 -260,-260 0,-143 116,-260 260,-260zm0 698c242,0 438,-196 438,-438 0,-242 -196,-438 -438,-438 -242,0 -439,196 -439,438 0,242 197,438 439,438z"/>
   <path class="fil0" d="M13770 12736l-173 294c0,0 -26,46 14,23l298 -176c8,-4 3,-12 0,-16l-3 -3 0 0 0 0 -123 -123 0 0c-7,-7 -13,1 -13,1z"/>
  </g>
 </g>
</svg>
